<?xml version="1.0" encoding="utf-8"?>
<!-- Generator: Adobe Illustrator 16.0.0, SVG Export Plug-In . SVG Version: 6.00 Build 0)  -->
<!DOCTYPE svg PUBLIC "-//W3C//DTD SVG 1.1//EN" "http://www.w3.org/Graphics/SVG/1.1/DTD/svg11.dtd">
<svg version="1.1" id="Layer_1" xmlns="http://www.w3.org/2000/svg" xmlns:xlink="http://www.w3.org/1999/xlink" x="0px" y="0px"
	 width="100px" height="100px" viewBox="0 0 100 100" enable-background="new 0 0 100 100" xml:space="preserve">
<g>
	<path d="M70.193,87.6H21.676c-7.555,0-13.697-6.143-13.697-13.697v-3.998c0-7.557,6.143-13.697,13.697-13.697h48.518
		c1.893,0,3.424,1.529,3.424,3.422c0,1.895-1.531,3.424-3.424,3.424H21.676c-3.775,0-6.848,3.076-6.848,6.852v3.998
		c0,3.773,3.072,6.846,6.848,6.846h48.518c1.893,0,3.424,1.533,3.424,3.426S72.086,87.6,70.193,87.6"/>
	<path d="M29.982,24.959c-0.5,0-1.01-0.111-1.496-0.346c-1.699-0.828-2.404-2.879-1.58-4.582c2.316-4.746,7.037-7.699,12.322-7.699
		h49.367c1.893,0,3.426,1.529,3.426,3.426c0,1.891-1.533,3.42-3.426,3.42H39.229c-2.643,0-5.006,1.482-6.162,3.857
		C32.471,24.254,31.254,24.959,29.982,24.959"/>
	<path d="M12.615,68.408c-0.428,0-0.857-0.076-1.277-0.246c-1.756-0.703-2.607-2.701-1.902-4.453l17.555-43.73
		c0.695-1.754,2.695-2.617,4.447-1.902c1.756,0.701,2.609,2.701,1.904,4.449L15.791,66.258
		C15.256,67.596,13.973,68.408,12.615,68.408"/>
	<path d="M71.047,87.672c-0.426,0-0.855-0.076-1.277-0.248c-1.754-0.701-2.605-2.699-1.9-4.451l17.549-43.73
		c0.703-1.754,2.699-2.625,4.453-1.902c1.754,0.703,2.609,2.701,1.904,4.449L74.223,85.523
		C73.689,86.859,72.404,87.672,71.047,87.672"/>
	<path d="M70.193,63.055c-0.443,0-0.893-0.084-1.324-0.268c-1.744-0.73-2.564-2.74-1.834-4.482l18.406-43.873
		c0.727-1.748,2.738-2.572,4.48-1.832c1.746,0.727,2.562,2.736,1.832,4.479L73.352,60.955
		C72.801,62.264,71.531,63.055,70.193,63.055"/>
	<path d="M67.834,70.406H21.176c-0.949,0-1.713-0.766-1.713-1.713s0.764-1.713,1.713-1.713h46.658c0.947,0,1.715,0.766,1.715,1.713
		S68.781,70.406,67.834,70.406"/>
	<path d="M67.834,76.756H21.176c-0.949,0-1.713-0.764-1.713-1.713c0-0.945,0.764-1.711,1.713-1.711h46.658
		c0.947,0,1.715,0.766,1.715,1.711C69.549,75.992,68.781,76.756,67.834,76.756"/>
</g>
</svg>
