<?xml version="1.0" encoding="utf-8"?>
<!-- Generator: Adobe Illustrator 16.0.0, SVG Export Plug-In . SVG Version: 6.00 Build 0)  -->
<!DOCTYPE svg PUBLIC "-//W3C//DTD SVG 1.1//EN" "http://www.w3.org/Graphics/SVG/1.1/DTD/svg11.dtd">
<svg version="1.1" id="Layer_1" xmlns="http://www.w3.org/2000/svg" xmlns:xlink="http://www.w3.org/1999/xlink" x="0px" y="0px"
	 width="100px" height="100px" viewBox="0 0 100 100" enable-background="new 0 0 100 100" xml:space="preserve">
<g>
	<path d="M32.078,20.881c-4.498,0.016-8.574,1.779-11.707,4.967c-3.594,3.652-5.613,8.865-5.543,14.303
		c0.023,2.039,0.344,4.008,0.941,5.857c0.715,3.072,4.52,9.854,22.918,24.176c3.627,2.803,9.051,6.598,11.953,8.619
		c3.047-2.107,6.965-5.119,11.473-8.838C80.096,55.232,83.73,48.297,84.295,45.473c0.631-2.188,0.902-4.17,0.877-6.207
		c-0.133-10.377-7.844-18.822-17.182-18.822c-0.006,0-0.352,0.002-0.357,0.004c-6.09,0.082-11.574,3.383-14.674,8.826
		c-0.627,1.105-1.791,1.793-3.066,1.814c-1.191-0.008-2.455-0.643-3.113-1.734C43.57,24.047,38.078,20.881,32.078,20.881
		 M50.588,86.723c-0.592,0-1.191-0.148-1.729-0.447c-0.158-0.086-0.314-0.186-0.457-0.297l-1.109-0.775
		c-2.66-1.85-8.877-6.172-13-9.357C18.479,63.537,10.402,54.662,8.867,47.908C8.129,45.686,7.693,43,7.664,40.238
		c-0.096-7.33,2.67-14.406,7.592-19.414c4.486-4.562,10.369-7.088,16.57-7.111h0.002c6.996,0,13.355,2.828,17.939,7.756
		c4.502-5.107,10.854-8.096,17.764-8.186l0.459-0.006c13.244,0,24.166,11.619,24.346,25.9c0.037,2.754-0.334,5.445-1.09,8.014
		c-1.281,6.469-9.348,15.83-24.578,28.311c-5.855,4.824-10.621,8.416-14.16,10.662C51.922,86.535,51.254,86.723,50.588,86.723"/>
	<path d="M77.275,45.848c-0.123,0-0.246-0.012-0.369-0.039c-0.971-0.201-1.59-1.152-1.391-2.119l0.256-1.031
		c0.312-1.061,0.461-2.156,0.443-3.271c-0.07-5.596-3.791-9.979-8.479-9.979c-0.988,0-1.795-0.803-1.795-1.789
		c0-0.992,0.799-1.793,1.789-1.793c6.674,0,11.975,5.936,12.064,13.512c0.025,1.469-0.17,2.924-0.58,4.316l-0.189,0.766
		C78.848,45.268,78.105,45.848,77.275,45.848"/>
</g>
</svg>
