<?xml version="1.0" encoding="utf-8"?>
<!-- Generator: Adobe Illustrator 16.0.0, SVG Export Plug-In . SVG Version: 6.00 Build 0)  -->
<!DOCTYPE svg PUBLIC "-//W3C//DTD SVG 1.1//EN" "http://www.w3.org/Graphics/SVG/1.1/DTD/svg11.dtd">
<svg version="1.1" id="Layer_1" xmlns="http://www.w3.org/2000/svg" xmlns:xlink="http://www.w3.org/1999/xlink" x="0px" y="0px"
	 width="100px" height="100px" viewBox="0 0 100 100" enable-background="new 0 0 100 100" xml:space="preserve">
<path d="M71.098,87.68c-0.605,0-1.211-0.129-1.75-0.371L50,78.824l-19.357,8.49c-0.547,0.242-1.133,0.363-1.738,0.363
	c-0.846,0-1.666-0.244-2.371-0.705c-1.23-0.805-1.963-2.16-1.963-3.625V22.969c0-5.871,4.775-10.648,10.645-10.648h29.572
	c5.869,0,10.643,4.777,10.643,10.648v60.379c0,1.467-0.734,2.822-1.963,3.625C72.766,87.434,71.945,87.68,71.098,87.68z M50,69.758
	c0.596,0,1.18,0.123,1.734,0.361l15.031,6.598V22.969c0-1.092-0.887-1.982-1.979-1.982H35.215c-1.092,0-1.977,0.891-1.977,1.982
	v53.748l15.021-6.596C48.82,69.881,49.404,69.758,50,69.758z"/>
</svg>
