<svg viewBox="0 0 100 100">
<g>
	<path d="M17.01,78.488h65.982V27.449H17.01V78.488z M86.553,85.609H13.449c-1.967,0-3.562-1.594-3.562-3.561v-58.16
		c0-1.967,1.596-3.561,3.562-3.561h73.104c1.967,0,3.562,1.594,3.562,3.561v58.16C90.115,84.016,88.52,85.609,86.553,85.609"/>
	<path d="M72.705,33.383c-1.967,0-3.561-1.596-3.561-3.561V17.951c0-1.967,1.594-3.561,3.561-3.561s3.561,1.594,3.561,3.561v11.871
		C76.266,31.787,74.672,33.383,72.705,33.383"/>
	<path d="M27.301,33.383c-1.967,0-3.561-1.596-3.561-3.561V17.951c0-1.967,1.594-3.561,3.561-3.561s3.561,1.594,3.561,3.561v11.871
		C30.861,31.787,29.268,33.383,27.301,33.383"/>
	<path d="M86.203,44.906H13.797c-0.984,0-1.783-0.797-1.783-1.779c0-0.984,0.799-1.779,1.783-1.779h72.406
		c0.986,0,1.783,0.795,1.783,1.779C87.986,44.109,87.189,44.906,86.203,44.906"/>
</g>
</svg>