<?xml version="1.0" encoding="utf-8"?>
<!-- Generator: Adobe Illustrator 16.0.0, SVG Export Plug-In . SVG Version: 6.00 Build 0)  -->
<!DOCTYPE svg PUBLIC "-//W3C//DTD SVG 1.1//EN" "http://www.w3.org/Graphics/SVG/1.1/DTD/svg11.dtd">

<svg id="Layer_1" data-name="Layer 1" xmlns="http://www.w3.org/2000/svg" viewBox="0 0 432.61 286.34"><defs><style>.cls-1{fill:#2c2f35;}</style></defs><title>Untitled-6</title><path class="cls-1" d="M413.9,3.44A33.77,33.77,0,0,0,399.11,0H33.51A33.84,33.84,0,0,0,18.66,3.47,33.38,33.38,0,0,0,0,33.5V252.84a33.54,33.54,0,0,0,33.51,33.5h365.6a33.54,33.54,0,0,0,33.51-33.5V33.5A33.4,33.4,0,0,0,413.9,3.44Zm-389.29,44,110.87,96.32L24.61,239V47.45ZM35.79,24.61h361L223.41,175.22a11.74,11.74,0,0,1-14.2,0ZM154.26,160.09l38.91,33.81a36.28,36.28,0,0,0,46.27,0l38.91-33.81L396.66,261.73H36Zm142.87-16.31L408,47.45V239Z"/></svg>