<?xml version="1.0" standalone="no"?> <!DOCTYPE svg PUBLIC "-//W3C//DTD SVG 1.0//EN" "http://www.w3.org/TR/2001/REC-SVG-20010904/DTD/svg10.dtd" > <svg xmlns="http://www.w3.org/2000/svg" width="100%" height="100%">
<defs >
<font horiz-adv-x="506" ><font-face
    font-family=""
    units-per-em="1000"
    panose-1="2 11 8 4 3 2 2 2 2 4"
    ascent="825"
    descent="-175"
    alphabetic="0" />
<missing-glyph horiz-adv-x="150" />
<glyph unicode=" " glyph-name="space" horiz-adv-x="150" />
<glyph unicode="!" glyph-name="exclam" horiz-adv-x="252" d="M207 202H45V692L207 691V202ZM127 -11Q107 -11 89 -4T58 17T37 48T29 86Q29 127 57 155T127 183Q167 183 195 155T223 86Q223 66 216 49T195 18T165 -3T127 -11Z" />
<glyph unicode="&quot;" glyph-name="quotedbl" horiz-adv-x="402" d="M176 692V419H32V692H176ZM370 692V419H226V692H370Z" />
<glyph unicode="#" glyph-name="numbersign" horiz-adv-x="631" d="M450 162L411 0H272L311 162H229L190 0H50L89 162H16V291H120L151 419H77V548H182L217 692H359L324 548H404L439 692H580L545 548H615V419H513L482 291H554V162H450ZM261 291H342L373 419H292L261 291Z" />
<glyph unicode="$" glyph-name="dollar" horiz-adv-x="509" d="M293 703Q342 697 376 679T430 632T459 568T466 489H335Q335 519 325 540T293 573V421L298 419L339 401Q373 386 400 368T447 325T477 268T488 193Q488 151 474 116T435 55T373 12T293 -10V-69H213V-11Q153
-5 115 18T56 73T27 144T21 217H161Q159 182 170 156T213 119V288L205 292L165 309Q99 338 63 385T27 512Q27 548 40 580T77 638T135 680T213 702V759H293V703ZM338 184Q338 210 326 225T293 251V120Q338 136 338 184ZM172 518Q172 495 182 482T213 457V576Q172
562 172 518Z" />
<glyph unicode="%" glyph-name="percent" horiz-adv-x="804" d="M560 167Q560 142 574 126T614 109Q643 109 656 126T669 167Q669 192 655 208T614 224Q586 224 573 207T560 167ZM438 166Q438 203 450 234T486 289T541 326T612 339Q653 339 686 326T742 290T778
235T791 166Q791 129 779 98T743 43T687 7T614 -6Q574 -6 542 7T486 43T451 97T438 166ZM220 0H84L588 692H724L220 0ZM135 527Q135 502 149 486T189 469Q218 469 231 486T244 527Q244 552 230 568T189 584Q161 584 148 567T135 527ZM13 526Q13 563 25 594T61 649T116
686T187 699Q228 699 261 686T317 650T353 595T366 526Q366 489 354 458T318 403T262 367T189 354Q149 354 117 367T61 403T26 457T13 526Z" />
<glyph unicode="&amp;" glyph-name="ampersand" horiz-adv-x="682" d="M472 37Q436 15 393 2T296 -11Q228 -11 176 5T87 51T32 121T13 208Q13 269 40 318T122 395Q102 418 90 448T78 517Q78 557 92 591T134 650T199 689T286 703Q337 703 376 689T443 650T484 591T498
517Q498 483 488 455T460 407T421 373T373 354L456 267Q469 319 467 371H624Q626 306 614 249T572 143L709 0H508L472 37ZM300 134Q318 134 335 137T365 145L214 300Q200 289 192 272T183 232Q183 188 215 161T300 134ZM229 512Q229 486 247 470T291 453Q317 453
334 470T351 515Q350 540 333 556T289 572Q263 572 246 555T229 512Z" />
<glyph unicode="&apos;" glyph-name="quotesingle" horiz-adv-x="208" d="M176 692V419H32V692H176Z" />
<glyph unicode="(" glyph-name="parenleft" horiz-adv-x="282" d="M32 581Q32 689 88 749T265 810V667Q220 667 202 645T184 584V51Q184 13 202 -9T265 -32V-175Q145 -175 89 -115T32 54V581Z" />
<glyph unicode=")" glyph-name="parenright" horiz-adv-x="282" d="M250 54Q250 -55 194 -115T17 -175V-32Q62 -32 80 -10T98 51V584Q98 622 80 644T17 667V810Q137 810 193 750T250 581V54Z" />
<glyph unicode="*" glyph-name="asterisk" horiz-adv-x="412" d="M78 646L153 603V692H259V603L334 646L386 555L312 512L387 470L334 378L259 422V332H153V422L78 378L25 469L100 512L25 555L78 646Z" />
<glyph unicode="+" glyph-name="plus" horiz-adv-x="475" d="M30 404H166V546H309V404H445V270H309V127H166V270H30V404Z" />
<glyph unicode="," glyph-name="comma" horiz-adv-x="226" d="M80 -1Q53 7 35 30T15 88Q14 130 41 157T114 185Q158 185 184 157T211 87Q211 47 188 3L129 -112H20L80 -1Z" />
<glyph unicode="-" glyph-name="hyphen" horiz-adv-x="322" d="M28 361H294V211H28V361Z" />
<glyph unicode="." glyph-name="period" horiz-adv-x="226" d="M113 -12Q71 -12 43 16T15 87Q15 129 42 157T113 185Q156 185 183 157T211 87Q211 45 183 17T113 -12Z" />
<glyph unicode="/" glyph-name="slash" horiz-adv-x="472" d="M140 -175H-6L331 731H478L140 -175Z" />
<glyph unicode="0" glyph-name="zero" horiz-adv-x="534" d="M332 470Q332 502 318 524T267 546Q231 546 217 524T202 470V222Q202 190 216 168T267 146Q303 146 317 168T332 222V470ZM499 224Q499 170 484 127T439 52T366 4T265 -13Q146 -13 91 51T35 224V470Q35
523 49 566T91 640T164 688T267 705Q324 705 367 688T440 641T484 567T499 470V224Z" />
<glyph unicode="1" glyph-name="one" horiz-adv-x="281" d="M241 0H74V524L12 502V660L86 692H241V0Z" />
<glyph unicode="2" glyph-name="two" horiz-adv-x="513" d="M28 0V146L241 357Q273 389 293 417T314 480Q314 512 297 529T250 546Q232 546 221 539T202 522T193 500T190 479H25Q24 514 33 553T67 627T137 683T251 705Q310 705 354 688T427 642T471 574T486 489Q486
452 478 423T455 368T420 320T376 274L247 149H490V0H28Z" />
<glyph unicode="3" glyph-name="three" horiz-adv-x="512" d="M143 414L267 543H41V692H460V544L333 423Q364 417 392 403T443 365T478 305T491 218Q491 164 473 122T422 49T346 3T251 -13Q180 -13 134 8T62 63T26 136T16 214H181Q181 188 197 166T251 143Q282
143 300 162T319 214Q319 246 301 264T247 283H143V414Z" />
<glyph unicode="4" glyph-name="four" horiz-adv-x="561" d="M471 181V0H309V181H14V318L307 692H471V324H541V181H471ZM184 324H309V482L184 324Z" />
<glyph unicode="5" glyph-name="five" horiz-adv-x="519" d="M200 214Q202 183 218 165T266 146Q300 146 316 168T332 224V240Q332 274 317 295T266 316Q240 316 227 305T208 280H46V692H457V543H206V442Q214 450 240 461T308 472Q405 472 451 415T497 247V222Q497
177 484 135T443 60T371 7T266 -13Q202 -13 158 4T87 52T47 124T35 214H200Z" />
<glyph unicode="6" glyph-name="six" horiz-adv-x="522" d="M385 520Q374 528 354 537T302 546Q271 546 251 538T220 516T205 483T201 443Q208 451 235 463T306 475Q404 475 450 419T497 244V219Q497 171 483 129T439 56T366 6T264 -13Q204 -13 161 3T90 51T49
124T35 220V439Q35 493 48 541T92 625T172 683T295 705Q364 705 406 686T469 648L385 520ZM266 320Q228 320 214 298T200 245V220Q200 188 214 166T266 144Q302 144 317 166T332 220V244Q332 277 317 298T266 320Z" />
<glyph unicode="7" glyph-name="seven" horiz-adv-x="481" d="M244 0H57L260 543H16V692H459V587L244 0Z" />
<glyph unicode="8" glyph-name="eight" horiz-adv-x="521" d="M194 493Q194 464 212 445T260 426Q290 426 308 445T327 493Q327 522 309 541T260 560Q230 560 212 541T194 493ZM29 501Q29 538 42 574T82 640T154 687T260 705Q322 705 366 687T438 641T479 575T492
501Q492 449 473 414T424 356Q462 332 482 295T503 201Q503 160 489 122T445 54T369 6T259 -13Q194 -12 149 6T74 53T32 121T18 201Q18 258 40 295T96 356Q67 379 48 414T29 501ZM188 207Q188 174 208 154T261 134Q294 134 314 154T334 207Q334 240 314 260T261
280Q229 280 209 260T188 207Z" />
<glyph unicode="9" glyph-name="nine" horiz-adv-x="522" d="M137 172Q148 164 170 155T227 146Q255 146 274 154T303 176T318 209T321 249Q314 241 289 229T226 217Q126 217 76 273T25 448V473Q25 521 39 563T81 636T153 686T255 705Q315 705 358 689T430 641T473
567T487 472V254Q487 197 474 148T430 64T351 8T231 -13Q196 -13 168 -8T119 5T81 24T53 43L137 172ZM256 372Q294 372 308 394T322 447V472Q322 504 307 526T255 548Q219 548 205 526T190 472V448Q190 415 205 394T256 372Z" />
<glyph unicode=":" glyph-name="colon" horiz-adv-x="226" d="M113 338Q71 338 43 366T15 437Q15 479 42 507T113 535Q156 535 183 507T211 437Q211 395 183 367T113 338ZM113 -12Q71 -12 43 16T15 87Q15 129 42 157T113 185Q156 185 183 157T211 87Q211 45 183
17T113 -12Z" />
<glyph unicode=";" glyph-name="semicolon" horiz-adv-x="226" d="M80 -1Q53 7 35 30T15 88Q14 130 41 157T114 185Q158 185 184 157T211 87Q211 47 188 3L129 -112H20L80 -1ZM113 337Q71 337 43 365T15 436Q15 478 42 506T113 534Q156 534 183 506T211 436Q211
394 183 366T113 337Z" />
<glyph unicode="&lt;" glyph-name="less" horiz-adv-x="420" d="M28 404L390 561V420L183 340L390 259V116L28 268V404Z" />
<glyph unicode="=" glyph-name="equal" horiz-adv-x="475" d="M30 481H445V353H30V481ZM30 309H445V181H30V309Z" />
<glyph unicode="&gt;" glyph-name="greater" horiz-adv-x="410" d="M382 268L30 116V259L227 340L30 420V561L382 404V268Z" />
<glyph unicode="?" glyph-name="question" horiz-adv-x="480" d="M310 202H151V443H238Q267 443 283 458T300 503Q300 529 284 546T240 563Q222 563 210 557T192 540T183 517T180 493H18Q17 510 19 532T30 577T54 623T95 662T156 691T241 702Q295 702 336 687T404
645T446 582T461 504Q461 465 449 434T417 380T369 344T310 328V202ZM231 -11Q190 -11 162 17T134 86Q134 127 162 155T231 183Q272 183 300 155T328 86Q328 45 300 17T231 -11Z" />
<glyph unicode="@" glyph-name="at" horiz-adv-x="955" d="M602 126Q581 103 546 88T473 73Q422 73 382 89T313 133T270 200T255 284Q255 327 270 366T312 434T377 481T461 498Q492 498 514 491T550 473V493H687V244Q687 219 697 205T734 191Q750 191 763 202T786
232T800 278T805 334Q805 475 722 548T485 621Q407 621 346 595T242 523T178 417T155 288Q155 212 181 151T253 46T365 -20T509 -44Q579 -44 641 -20T743 37L813 -50Q765 -99 685 -130T507 -162Q393 -162 303 -128T150 -34T54 107T20 281Q20 383 54 467T151 611T300
704T488 737Q595 737 678 708T818 626T905 501T935 344Q935 284 920 235T876 149T807 94T717 74Q673 74 645 89T602 126ZM400 286Q400 253 420 231T473 209Q508 209 526 231T545 286Q545 319 526 341T473 363Q439 363 420 341T400 286Z" />
<glyph unicode="A" glyph-name="A" horiz-adv-x="658" d="M431 165H213L156 0H-8L234 692H410L666 0H489L431 165ZM261 305H383L322 480L261 305Z" />
<glyph unicode="B" glyph-name="B" horiz-adv-x="521" d="M503 206Q503 109 446 55T293 0H40V692H277Q384 692 436 641T489 502Q489 457 470 420T419 365Q462 342 482 305T503 206ZM205 282V145H267Q296 145 313 164T331 214Q331 246 314 264T267 282H205ZM205
549V423H261Q287 423 303 439T319 486Q319 517 304 533T261 549H205Z" />
<glyph unicode="C" glyph-name="C" horiz-adv-x="631" d="M618 77Q573 35 517 11T388 -13Q302 -13 234 14T118 90T45 203T20 345Q20 420 46 485T119 600T234 677T385 705Q464 705 520 682T619 623L520 497Q501 514 468 531T387 549Q341 549 305 533T245 490T208
425T195 346Q195 303 209 266T248 202T308 159T388 143Q432 143 464 159T520 195L618 77Z" />
<glyph unicode="D" glyph-name="D" horiz-adv-x="587" d="M198 692Q284 692 352 669T468 602T541 493T567 348Q567 267 542 203T469 93T353 24T198 0H40V692H198ZM207 147Q248 147 282 159T341 196T379 259T393 347Q393 447 343 496T207 545V147Z" />
<glyph unicode="E" glyph-name="E" horiz-adv-x="401" d="M40 0V692H368V536H207V429H363V275H207V156H371V0H40Z" />
<glyph unicode="F" glyph-name="F" horiz-adv-x="400" d="M207 275V0H40V692H372V536H207V429H367V275H207Z" />
<glyph unicode="G" glyph-name="G" horiz-adv-x="736" d="M699 0H538V34Q513 14 474 1T379 -12Q299 -12 233 13T119 86T46 200T20 347Q20 419 45 484T117 598T230 676T379 705Q436 705 481 694T563 663T627 617T673 559L541 464Q530 479 516 494T482 522T437 541T378
549Q337 549 303 534T245 493T208 429T194 347Q194 300 208 262T249 198T310 157T387 142Q445 142 482 160T535 195V245H432V382H699V0Z" />
<glyph unicode="H" glyph-name="H" horiz-adv-x="654" d="M614 0H447V273H207V0H40V692H207V432H447V692H614V0Z" />
<glyph unicode="I" glyph-name="I" horiz-adv-x="247" d="M207 0H40V692H207V0Z" />
<glyph unicode="J" glyph-name="J" horiz-adv-x="305" d="M266 182Q266 141 258 108T230 50T175 13T84 -1Q76 -1 56 -1T18 0V154H57Q84 155 91 170T99 202V692H266V182Z" />
<glyph unicode="K" glyph-name="K" horiz-adv-x="581" d="M207 421L396 692H589L346 361L588 0H393L207 283V0H40V692H207V421Z" />
<glyph unicode="L" glyph-name="L" horiz-adv-x="384" d="M40 0V692H207V156H365V0H40Z" />
<glyph unicode="M" glyph-name="M" horiz-adv-x="881" d="M516 0H358L194 486V0H40V692H290L443 223L596 692H841V0H680V486L516 0Z" />
<glyph unicode="N" glyph-name="N" horiz-adv-x="673" d="M201 409V0H40V692H212L472 274V692H633V0H468L201 409Z" />
<glyph unicode="O" glyph-name="O" horiz-adv-x="766" d="M20 345Q20 420 46 486T119 600T233 677T379 705Q464 705 532 678T647 602T720 489T746 348Q746 272 721 206T648 92T534 15T384 -13Q299 -13 232 14T117 90T45 203T20 345ZM195 346Q195 303 208 266T245
202T305 159T383 143Q429 143 464 159T523 202T559 267T571 346Q571 388 558 425T521 489T462 533T382 549Q336 549 301 533T243 490T207 425T195 346Z" />
<glyph unicode="P" glyph-name="P" horiz-adv-x="503" d="M496 486Q496 438 481 399T438 333T369 291T279 276H206V0H40V692H278Q387 692 441 639T496 486ZM206 548V420H264Q293 420 308 438T324 485Q324 514 308 531T264 548H206Z" />
<glyph unicode="Q" glyph-name="Q" horiz-adv-x="766" d="M20 345Q20 420 46 486T119 600T233 677T379 705Q464 705 532 678T647 602T720 489T746 348Q746 297 733 251T696 163L755 114L653 -8L588 47Q545 18 494 3T384 -13Q299 -13 232 14T117 90T45 203T20 345ZM192
346Q192 302 205 265T243 200T303 156T383 140Q425 140 461 154L414 194L515 315L564 273Q569 290 571 308T574 346Q574 389 561 427T524 492T463 536T382 552Q336 552 301 536T241 493T205 427T192 346Z" />
<glyph unicode="R" glyph-name="R" horiz-adv-x="555" d="M496 486Q496 428 473 385T408 316L566 0H387L251 284H206V0H40V692H278Q387 692 441 639T496 486ZM206 548V420H264Q293 420 308 438T324 485Q324 514 308 531T264 548H206Z" />
<glyph unicode="S" glyph-name="S" horiz-adv-x="508" d="M194 510Q194 488 208 473T257 443L344 409Q412 381 449 334T487 209Q487 156 470 115T421 46T345 2T249 -13Q175 -13 129 8T59 64T27 138T21 217H179Q178 200 181 185T192 157T214 138T249 130Q278 130
296 145T315 191Q315 220 296 236T242 266Q216 277 190 287T134 312Q81 339 54 388T27 500Q27 545 43 583T88 648T158 690T250 705Q311 705 353 689T421 643T457 575T465 489H311Q312 521 296 541T251 562Q222 562 208 547T194 510Z" />
<glyph unicode="T" glyph-name="T" horiz-adv-x="430" d="M299 536V0H132V536H16V692H414V536H299Z" />
<glyph unicode="U" glyph-name="U" horiz-adv-x="644" d="M321 -13Q248 -13 195 8T106 67T54 158T37 276V692H204V276Q204 217 232 181T323 144Q383 144 411 181T440 277V692H607V277Q607 214 589 161T535 70T446 9T321 -13Z" />
<glyph unicode="V" glyph-name="V" horiz-adv-x="673" d="M-8 692H179L341 211L503 692H681L426 0H245L-8 692Z" />
<glyph unicode="W" glyph-name="W" horiz-adv-x="993" d="M497 435L377 0H186L-5 692H178L291 221L412 692H591L712 221L825 692H998L812 0H616L497 435Z" />
<glyph unicode="X" glyph-name="X" horiz-adv-x="637" d="M219 357L0 692H203L324 502L441 692H637L420 352L645 0H452L315 211Q261 131 228 77T179 0H-8L219 357Z" />
<glyph unicode="Y" glyph-name="Y" horiz-adv-x="530" d="M-12 692H173L269 503L366 692H542L346 343V0H180V340L-12 692Z" />
<glyph unicode="Z" glyph-name="Z" horiz-adv-x="578" d="M25 0V109L314 539H27V692H551V584L257 152H553V0H25Z" />
<glyph unicode="[" glyph-name="bracketleft" horiz-adv-x="282" d="M32 810H265V666H184V-31H264V-175H32V810Z" />
<glyph unicode="\" glyph-name="backslash" horiz-adv-x="472" d="M-6 731H141L478 -175H332L-6 731Z" />
<glyph unicode="]" glyph-name="bracketright" horiz-adv-x="282" d="M250 -175H18V-31H98V666H17V810H250V-175Z" />
<glyph unicode="^" glyph-name="asciicircum" horiz-adv-x="521" d="M506 385H342L260 540L177 385H15L180 692H342L506 385Z" />
<glyph unicode="_" glyph-name="underscore" horiz-adv-x="615" d="M28 -21H587V-149H28V-21Z" />
<glyph unicode="`" glyph-name="grave" horiz-adv-x="476" d="M245 708L320 568H170L88 708H245Z" />
<glyph unicode="a" glyph-name="a" horiz-adv-x="476" d="M17 177Q17 217 29 249T66 305T123 340T199 353Q232 353 254 347T287 334V356Q287 379 276 396T235 414Q206 414 196 399T186 368H37Q39 449 87 495T234 541Q297 541 338 525T403 482T436 416T446 332V0H314V29Q295
12 269 3T204 -6Q165 -6 131 6T72 42T32 100T17 177ZM168 181Q168 155 185 138T229 121Q255 121 272 138T290 181Q290 208 272 224T228 240Q202 240 185 224T168 181Z" />
<glyph unicode="b" glyph-name="b" horiz-adv-x="614" d="M188 268Q188 210 222 173T314 135Q374 135 406 173T438 268Q438 326 405 364T313 402Q253 402 221 364T188 268ZM183 0H32V731H193V498Q213 516 250 530T335 544Q396 544 445 524T528 468T580 381T598
268Q598 208 579 158T523 70T437 12T324 -9Q284 -9 247 2T183 36V0Z" />
<glyph unicode="c" glyph-name="c" horiz-adv-x="475" d="M296 136Q329 136 350 148T385 171L474 57Q462 46 445 34T405 13T355 -3T295 -9Q230 -9 179 12T91 71T36 158T16 266Q16 324 36 375T94 463T182 522T293 544Q327 544 355 538T405 523T445 501T474 478L385
364Q372 375 350 387T295 399Q266 399 244 389T207 361T184 319T176 267Q176 236 186 212T212 171T250 145T296 136Z" />
<glyph unicode="d" glyph-name="d" horiz-adv-x="614" d="M434 35Q407 12 370 2T293 -9Q230 -9 179 11T92 68T36 155T16 266Q16 323 35 374T90 462T175 522T286 544Q331 544 364 535T421 511V731H582V0H434V35ZM176 268Q176 240 185 216T210 173T250 145T301 135Q331
135 354 145T393 174T417 216T426 268Q426 296 417 320T392 363T353 391T301 402Q272 402 249 392T209 363T185 321T176 268Z" />
<glyph unicode="e" glyph-name="e" horiz-adv-x="555" d="M183 215Q188 177 216 155T292 133Q335 133 361 153T401 196L524 124Q513 101 494 77T447 34T380 3T291 -9Q230 -9 180 10T93 64T36 150T16 265Q16 325 35 376T89 464T172 523T279 544Q340 544 389 525T472
471T524 386T542 277Q542 265 542 250T540 215H183ZM279 410Q237 410 214 385T187 328H375Q372 361 348 385T279 410Z" />
<glyph unicode="f" glyph-name="f" horiz-adv-x="304" d="M221 535H290V400H221V0H60V400H13V535H60V553Q60 593 69 626T99 683T155 719T241 732Q248 732 262 732T290 731V598H265Q238 598 230 583T221 550V535Z" />
<glyph unicode="g" glyph-name="g" horiz-adv-x="611" d="M430 535H581V89Q581 14 560 -38T500 -122T408 -169T290 -184Q230 -184 181 -171T98 -140L146 -15Q169 -26 207 -36T291 -46Q346 -46 383 -27T421 32Q404 17 373 4T294 -9Q231 -9 180 11T93 67T36 154T16
266Q16 323 35 374T91 462T177 522T288 544Q379 544 430 501V535ZM176 267Q176 239 185 215T210 172T250 144T301 134Q331 134 354 144T393 173T417 215T426 267Q426 295 417 319T392 362T353 390T301 401Q272 401 249 391T209 362T185 320T176 267Z" />
<glyph unicode="h" glyph-name="h" horiz-adv-x="498" d="M307 333Q307 362 293 380T250 398Q222 398 208 381T193 334V0H32V731H193V501Q197 505 205 512T227 525T258 536T301 541Q348 541 380 526T431 485T459 425T468 352V0H307V333Z" />
<glyph unicode="i" glyph-name="i" horiz-adv-x="225" d="M193 0H32V535H193V0ZM110 556Q91 556 75 563T46 582T26 611T19 647Q19 666 26 683T45 712T74 732T110 739Q129 739 146 732T175 713T195 683T202 647Q202 628 195 612T176 583T146 563T110 556Z" />
<glyph unicode="j" glyph-name="j" horiz-adv-x="226" d="M112 556Q93 556 77 563T48 582T28 611T21 647Q21 666 28 683T47 712T76 732T112 739Q131 739 148 732T177 713T197 683T204 647Q204 628 197 612T178 583T148 563T112 556ZM194 8Q194 -33 185 -66T155
-124T100 -162T14 -176Q6 -176 -5 -176T-34 -175V-39H-8Q20 -38 26 -24T33 9V535H194V8Z" />
<glyph unicode="k" glyph-name="k" horiz-adv-x="519" d="M338 290L519 0H325L193 225V0H32V731H193V336L327 535H512L338 290Z" />
<glyph unicode="l" glyph-name="l" horiz-adv-x="225" d="M193 0H32V731H193V0Z" />
<glyph unicode="m" glyph-name="m" horiz-adv-x="777" d="M470 0H309V333Q309 362 295 380T251 398Q223 398 208 381T193 334V0H32V535H193V501Q197 505 205 512T227 525T260 536T305 541Q350 541 379 528T429 492Q438 500 449 508T477 524T513 536T560 541Q612
541 647 526T705 485T737 425T747 352V0H586V333Q586 362 572 380T528 398Q499 398 485 379T470 333V0Z" />
<glyph unicode="n" glyph-name="n" horiz-adv-x="498" d="M307 333Q307 362 293 380T250 398Q222 398 208 381T193 334V0H32V535H193V501Q197 505 205 512T227 525T258 536T301 541Q348 541 380 526T431 485T459 425T468 352V0H307V333Z" />
<glyph unicode="o" glyph-name="o" horiz-adv-x="595" d="M176 267Q176 239 185 215T210 174T248 146T298 136Q326 136 348 146T387 173T411 215T419 267Q419 295 410 319T385 361T347 389T297 399Q268 399 246 389T208 361T184 319T176 267ZM16 266Q16 324 36
375T94 463T183 522T296 544Q362 544 414 523T503 465T559 378T579 269Q579 210 559 160T502 72T413 13T297 -9Q232 -9 181 12T92 70T36 157T16 266Z" />
<glyph unicode="p" glyph-name="p" horiz-adv-x="614" d="M188 267Q188 209 222 172T314 134Q374 134 406 172T438 267Q438 325 405 363T313 401Q253 401 221 363T188 267ZM193 -175H32V535H183V501Q192 508 205 515T237 529T278 540T332 544Q393 544 442 524T526
467T579 380T598 269Q598 211 580 161T526 73T439 13T324 -9Q282 -9 248 1T193 25V-175Z" />
<glyph unicode="q" glyph-name="q" horiz-adv-x="614" d="M421 25Q402 10 366 1T291 -9Q229 -9 179 11T92 67T36 155T16 268Q16 327 35 377T90 465T177 523T291 544Q333 544 370 533T431 501V535H582V-175H421V25ZM176 268Q176 239 185 215T210 172T250 144T302
134Q361 134 393 172T426 268Q426 296 417 320T392 363T352 391T301 401Q271 401 248 391T209 363T185 321T176 268Z" />
<glyph unicode="r" glyph-name="r" horiz-adv-x="301" d="M287 369H247Q215 369 204 357T193 319V0H32V535H193V498Q208 518 229 528T287 538V369Z" />
<glyph unicode="s" glyph-name="s" horiz-adv-x="437" d="M178 387Q178 359 221 350Q238 346 255 343T286 336Q321 326 346 313T388 280T413 233T421 170Q421 123 404 90T359 35T294 3T217 -7Q158 -7 119 8T56 49T24 108T17 176H170Q169 156 178 138T219 120Q239
120 252 128T265 153Q265 170 256 178T221 192Q195 197 178 201T140 213Q81 233 54 274T26 375Q26 414 41 445T82 497T143 530T220 542Q263 542 298 532T358 501T398 447T412 368H265Q264 392 253 406T217 420Q199 420 189 411T178 387Z" />
<glyph unicode="t" glyph-name="t" horiz-adv-x="315" d="M221 535H292V400H221V187Q221 160 232 150T265 139H292V4Q283 1 272 -1Q262 -3 247 -4T211 -6Q134 -6 97 32T60 139V400H13V535H60V620H221V535Z" />
<glyph unicode="u" glyph-name="u" horiz-adv-x="495" d="M191 203Q191 174 203 156T245 138Q273 138 287 156T302 203V535H463V0H303V34Q294 24 268 9T197 -6Q152 -6 121 8T69 47T39 107T30 184V535H191V203Z" />
<glyph unicode="v" glyph-name="v" horiz-adv-x="538" d="M275 203L373 535H539L360 0H182L-1 535H177L275 203Z" />
<glyph unicode="w" glyph-name="w" horiz-adv-x="820" d="M579 207L652 535H819L677 0H499L414 302L332 0H151L1 535H183L255 207L332 535H503L579 207Z" />
<glyph unicode="x" glyph-name="x" horiz-adv-x="548" d="M271 146L171 0H-1L185 272L7 535H192L279 405L366 535H541L364 277L549 0H370L271 146Z" />
<glyph unicode="y" glyph-name="y" horiz-adv-x="539" d="M122 -175L195 29L-1 535H176L277 248L377 535H541L277 -175H122Z" />
<glyph unicode="z" glyph-name="z" horiz-adv-x="430" d="M212 133H410V0H20V114L211 402H22V535H410V421L212 133Z" />
<glyph unicode="{" glyph-name="braceleft" horiz-adv-x="322" d="M224 51Q224 13 242 -9T305 -31V-175Q185 -175 129 -115T72 54V179Q72 211 62 228T12 246V396Q52 396 62 413T72 463V581Q72 689 128 749T305 810V666Q260 666 242 644T224 584V426Q224 399 218
381T200 350T176 330T147 320Q162 317 175 310T200 291T217 260T224 214V51V51Z" />
<glyph unicode="|" glyph-name="bar" horiz-adv-x="253" d="M193 -175H60V731H193V-175Z" />
<glyph unicode="}" glyph-name="braceright" horiz-adv-x="322" d="M98 214Q98 241 104 259T122 290T146 310T175 320Q160 323 147 330T122 349T105 380T98 426V584Q98 622 80 644T17 666V810Q137 810 193 750T250 581V463Q250 431 260 414T310 396V246Q270 246
260 229T250 179V54Q250 -55 194 -115T17 -175V-31Q62 -31 80 -9T98 51V214Z" />
<glyph unicode="~" glyph-name="asciitilde" horiz-adv-x="477" d="M238 222Q222 230 209 236T182 242Q165 242 158 232T149 205H16Q15 247 25 282T55 342T104 382T171 396Q194 396 210 391T241 379Q258 371 271 364T298 357Q313 357 320 368T328 398H461Q463
308 422 257T310 205Q287 205 270 210T238 222Z" />
<glyph unicode="&#xa0;" glyph-name="uni00A0" horiz-adv-x="150" />
<glyph unicode="&#xa1;" glyph-name="exclamdown" horiz-adv-x="252" d="M207 -106H45V391H207V-106ZM125 600Q145 600 163 593T194 572T215 541T223 503Q223 462 195 434T125 406Q85 406 57 434T29 503Q29 523 36 540T57 571T87 592T125 600Z" />
<glyph unicode="&#xa2;" glyph-name="cent" horiz-adv-x="484" d="M330 542Q387 535 424 515T482 474L397 365Q388 373 371 384T330 400V134Q353 140 370 150T398 170L483 61Q462 41 423 20T330 -7V-69H250V-6Q196 1 153 25T79 85T32 167T16 266Q16 318 33 365T81
448T155 509T250 541V604H330V542ZM171 267Q171 217 193 186T250 140V396Q211 382 191 348T171 267Z" />
<glyph unicode="&#xa3;" glyph-name="sterling" horiz-adv-x="556" d="M244 404H376V263H244V149H540V0H23V149H77V263H23V404H77V485Q77 532 91 572T134 642T206 688T306 705Q376 705 421 683T491 626T525 553T533 479H368Q368 488 366 499T357 521T338 539T306
546Q272 546 258 525T244 473V404Z" />
<glyph unicode="&#xa5;" glyph-name="yen" horiz-adv-x="548" d="M189 411L1 692H194L279 557L363 692H542L355 411H481V294H355V247H481V130H355V0H189V130H63V247H189V294H63V411H189Z" />
<glyph unicode="&#xa6;" glyph-name="brokenbar" horiz-adv-x="253" d="M193 -175H60V256H193V-175ZM193 311H60V731H193V311Z" />
<glyph unicode="&#xa7;" glyph-name="section" horiz-adv-x="581" d="M339 10Q339 33 325 45T282 67L144 117Q118 126 96 141T56 177T29 226T19 289Q19 345 45 380T107 433Q78 476 78 539Q78 578 92 614T133 677T202 721T298 737Q367 737 409 717T474 666T504
599T512 530H352Q352 552 340 571T296 591Q266 591 255 577T243 546Q243 526 257 513T301 490L425 448Q498 423 529 378T560 271Q560 220 536 180T477 122Q494 101 499 74T505 16Q505 -23 491 -59T448 -122T377 -166T281 -182Q221 -182 180 -166T113 -122T76 -56T65
29H227Q227 18 229 7T238 -14T256 -30T284 -36Q314 -36 326 -22T339 10ZM237 338Q213 347 197 336T181 305Q181 277 207 268L338 221Q358 213 378 219T398 254Q398 265 392 274T373 289L237 338Z" />
<glyph unicode="&#xa8;" glyph-name="dieresis" horiz-adv-x="476" d="M147 562Q112 562 88 586T64 645Q64 680 88 703T147 727Q185 727 209 704T233 645Q233 610 208 586T147 562ZM340 562Q305 562 281 586T257 645Q257 680 281 703T340 727Q378 727 402 704T426
645Q426 610 401 586T340 562Z" />
<glyph unicode="&#xa9;" glyph-name="copyright" horiz-adv-x="768" d="M20 345Q20 420 46 486T120 600T234 677T380 705Q465 705 533 678T649 602T722 489T748 348Q748 273 723 207T650 92T535 15T385 -13Q302 -13 235 14T120 90T46 203T20 345ZM119 345Q119
288 137 239T189 153T273 97T385 76Q448 76 497 96T579 153T631 239T649 348Q649 407 631 456T579 540T494 596T380 616Q320 616 272 596T190 539T138 454T119 345ZM451 402Q445 409 431 416T396 423Q364 423 346 402T327 346Q327 313 347 292T399 270Q419 270
432 276T451 288L525 198Q501 175 470 163T400 150Q353 150 316 165T253 206T214 268T200 345Q200 386 214 422T253 484T316 526T398 542Q442 542 472 530T525 499L451 402Z" />
<glyph unicode="&#xaa;" glyph-name="ordfeminine" horiz-adv-x="362" d="M17 423Q16 483 54 519T155 556Q181 556 195 552T218 543V558Q218 575 211 588T183 601Q161 601 154 591T146 568H32Q34 629 70 663T183 698Q229 698 259 686T308 653T333 604T340 541V289H240V311Q225
297 206 291T158 285Q128 285 103 294T58 322T28 365T17 423ZM132 425Q132 405 144 394T176 382Q196 382 208 393T220 425Q220 445 208 456T176 468Q156 468 144 457T132 425Z" />
<glyph unicode="&#xab;" glyph-name="guillemotleft" horiz-adv-x="421" d="M91 94L12 268L91 443H226L146 268L226 94H91ZM274 94L195 268L274 443H409L329 268L409 94H274Z" />
<glyph unicode="&#xae;" glyph-name="registered" horiz-adv-x="439" d="M205 506V426H140V646H233Q270 646 288 628T307 577Q307 557 299 543T278 520L315 426H248L217 506H205ZM205 592V557H221Q240 557 240 575Q240 592 221 592H205ZM12 533Q12 576 27 613T69
678T133 722T217 738Q265 738 304 723T370 680T412 615T427 534Q427 492 412 455T370 389T305 345T219 329Q172 329 134 344T69 387T27 452T12 533ZM68 533Q68 500 78 472T108 424T156 392T219 380Q291 380 330 423T370 534Q370 602 330 644T217 686Q183 686 156
675T109 643T79 595T68 533Z" />
<glyph unicode="&#xaf;" glyph-name="macron" horiz-adv-x="400" d="M75 692H325V576H75V692Z" />
<glyph unicode="&#xb0;" glyph-name="degree" horiz-adv-x="362" d="M16 540Q16 574 28 604T61 656T113 690T180 703Q218 703 249 691T301 657T334 606T346 542Q346 507 335 477T301 426T249 392T181 379Q143 379 113 391T61 425T28 476T16 540ZM123 540Q123 516
139 499T181 481Q207 481 223 499T239 540Q239 565 223 583T181 601Q155 601 139 583T123 540Z" />
<glyph unicode="&#xb2;" glyph-name="twosuperior" horiz-adv-x="335" d="M17 335V419L144 508Q168 525 178 536T189 565Q189 577 182 586T160 595Q141 595 135 584T129 560H17Q16 582 22 607T45 653T90 688T160 702Q231 702 271 668T311 573Q311 535 293 511T245
466L201 435H315V335H17Z" />
<glyph unicode="&#xb3;" glyph-name="threesuperior" horiz-adv-x="326" d="M96 555L157 597H36V692H287V603L228 561Q241 558 255 551T282 531T301 498T309 452Q309 425 300 402T271 362T224 335T156 325Q85 325 49 359T12 454H127Q127 420 159 420Q174 420 182
429T190 452Q190 483 155 483H96V555Z" />
<glyph unicode="&#xb4;" glyph-name="acute" horiz-adv-x="476" d="M399 708L317 568H167L242 708H399Z" />
<glyph unicode="&#xb6;" glyph-name="paragraph" horiz-adv-x="479" d="M150 0V405Q120 406 94 416T48 446T18 491T7 550Q7 581 18 607T49 652T96 681T158 692H269V0H150ZM439 0H320V692H439V0Z" />
<glyph unicode="&#xb7;" glyph-name="periodcentered" horiz-adv-x="246" d="M123 230Q81 230 53 258T25 329Q25 371 52 399T123 427Q166 427 193 399T221 329Q221 287 193 259T123 230Z" />
<glyph unicode="&#xb8;" glyph-name="cedilla" horiz-adv-x="400" d="M125 -264V-177H147Q164 -176 173 -169T183 -144Q183 -128 174 -120T147 -112H125V14H213V-34Q255 -48 270 -78T286 -144Q286 -201 250 -232T145 -264H125Z" />
<glyph unicode="&#xb9;" glyph-name="onesuperior" horiz-adv-x="199" d="M169 335H49V592L10 578V669L61 692H169V335Z" />
<glyph unicode="&#xba;" glyph-name="ordmasculine" horiz-adv-x="440" d="M135 491Q135 451 158 426T221 400Q260 400 282 426T305 491Q305 532 281 557T220 583Q180 583 158 557T135 491ZM10 490Q10 535 25 573T68 638T134 682T219 698Q268 698 307 683T373
640T415 575T430 493Q430 448 415 410T373 345T307 301T220 285Q172 285 133 300T67 343T25 408T10 490Z" />
<glyph unicode="&#xbb;" glyph-name="guillemotright" horiz-adv-x="421" d="M147 443L226 268L147 94H12L92 268L12 443H147ZM330 443L409 268L330 94H195L275 268L195 443H330Z" />
<glyph unicode="&#xbc;" glyph-name="onequarter" horiz-adv-x="699" d="M198 335H78V592L39 578V669L90 692H198V335ZM634 57V1H519V57H350V157L518 362H634V160H671V57H634ZM459 160H519V234L459 160ZM127 0H3L516 692H642L127 0Z" />
<glyph unicode="&#xbd;" glyph-name="onehalf" horiz-adv-x="714" d="M198 335H78V592L39 578V669L90 692H198V335ZM388 1V85L515 174Q539 191 549 202T560 231Q560 243 553 252T531 261Q512 261 506 250T500 226H388Q387 248 393 273T416 319T461 354T531 368Q602
368 642 334T682 239Q682 201 664 177T616 132L572 101H686V1H388ZM127 0H3L516 692H642L127 0Z" />
<glyph unicode="&#xbe;" glyph-name="threequarters" horiz-adv-x="773" d="M112 555L173 597H52V692H303V603L244 561Q257 558 271 551T298 531T317 498T325 452Q325 425 316 402T287 362T240 335T172 325Q101 325 65 359T28 454H143Q143 420 175 420Q190 420
198 429T206 452Q206 483 171 483H112V555ZM708 57V1H593V57H424V157L592 362H708V160H745V57H708ZM533 160H593V234L533 160ZM204 0H80L593 692H719L204 0Z" />
<glyph unicode="&#xbf;" glyph-name="questiondown" horiz-adv-x="480" d="M170 392H329V143H242Q213 143 197 128T180 83Q180 57 196 40T240 23Q258 23 270 29T288 46T297 69T300 93H462Q463 67 456 32T426 -37T358 -93T239 -116Q185 -116 144 -101T76 -60T34
2T19 80Q19 119 31 150T63 203T111 239T170 258V392ZM249 601Q290 601 318 573T346 504Q346 463 318 435T249 407Q208 407 180 435T152 504Q152 545 180 573T249 601Z" />
<glyph unicode="&#xc0;" glyph-name="Agrave" horiz-adv-x="658" d="M321 853L393 721H242L164 853H321ZM431 165H213L156 0H-8L234 692H410L666 0H489L431 165ZM261 305H383L322 480L261 305Z" />
<glyph unicode="&#xc1;" glyph-name="Aacute" horiz-adv-x="658" d="M479 853L401 721H248L320 853H479ZM431 165H213L156 0H-8L234 692H410L666 0H489L431 165ZM261 305H383L322 480L261 305Z" />
<glyph unicode="&#xc2;" glyph-name="Acircumflex" horiz-adv-x="658" d="M406 853L505 721H361L322 765L283 721H139L238 853H406ZM431 165H213L156 0H-8L234 692H410L666 0H489L431 165ZM261 305H383L322 480L261 305Z" />
<glyph unicode="&#xc3;" glyph-name="Atilde" horiz-adv-x="658" d="M383 723Q365 723 351 727T326 737T304 746T285 751Q260 751 260 721H147Q145 752 152 779T175 825T213 855T264 866Q284 866 298 862T322 852T342 843T361 838Q384 838 384 868H497Q501 801
470 762T383 723ZM431 165H213L156 0H-8L234 692H410L666 0H489L431 165ZM261 305H383L322 480L261 305Z" />
<glyph unicode="&#xc4;" glyph-name="Adieresis" horiz-adv-x="658" d="M218 712Q183 712 159 736T135 795Q135 830 159 853T218 877Q256 877 280 854T304 795Q304 760 279 736T218 712ZM423 712Q388 712 364 736T340 795Q340 830 364 853T423 877Q461 877 485
854T509 795Q509 760 484 736T423 712ZM431 165H213L156 0H-8L234 692H410L666 0H489L431 165ZM261 305H383L322 480L261 305Z" />
<glyph unicode="&#xc5;" glyph-name="Aring" horiz-adv-x="658" d="M208 820Q208 868 240 899T321 931Q375 931 406 900T437 822Q437 774 406 743T322 711Q271 711 240 742T208 820ZM283 822Q283 802 294 791T323 780Q340 780 351 791T362 822Q362 839 352 850T323
862Q304 862 294 851T283 822ZM431 165H213L156 0H-8L234 692H410L666 0H489L431 165ZM261 305H383L322 480L261 305Z" />
<glyph unicode="&#xc6;" glyph-name="AE" horiz-adv-x="787" d="M426 0V148H247L172 0H-15L357 692H754V536H593V429H749V275H593V156H757V0H426ZM426 288V499L318 288H426Z" />
<glyph unicode="&#xc7;" glyph-name="Ccedilla" horiz-adv-x="631" d="M618 77Q573 35 517 11T388 -13H385V-34Q427 -48 442 -78T458 -144Q458 -201 422 -232T317 -264H297V-177H319Q336 -176 345 -169T355 -144Q355 -128 346 -120T319 -112H297V-4Q231 9 180
41T93 118T39 222T20 345Q20 420 46 485T119 600T234 677T385 705Q464 705 520 682T619 623L520 497Q501 514 468 531T387 549Q341 549 305 533T245 490T208 425T195 346Q195 303 209 266T248 202T308 159T388 143Q432 143 464 159T520 195L618 77Z" />
<glyph unicode="&#xc8;" glyph-name="Egrave" horiz-adv-x="401" d="M220 853L292 721H141L63 853H220ZM40 0V692H368V536H207V429H363V275H207V156H371V0H40Z" />
<glyph unicode="&#xc9;" glyph-name="Eacute" horiz-adv-x="401" d="M349 853L271 721H118L190 853H349ZM40 0V692H368V536H207V429H363V275H207V156H371V0H40Z" />
<glyph unicode="&#xca;" glyph-name="Ecircumflex" horiz-adv-x="401" d="M288 853L387 721H243L204 765L165 721H21L120 853H288ZM40 0V692H368V536H207V429H363V275H207V156H371V0H40Z" />
<glyph unicode="&#xcb;" glyph-name="Edieresis" horiz-adv-x="401" d="M104 712Q69 712 45 736T21 795Q21 830 45 853T104 877Q142 877 166 854T190 795Q190 760 165 736T104 712ZM309 712Q274 712 250 736T226 795Q226 830 250 853T309 877Q347 877 371 854T395
795Q395 760 370 736T309 712ZM40 0V692H368V536H207V429H363V275H207V156H371V0H40Z" />
<glyph unicode="&#xcc;" glyph-name="Igrave" horiz-adv-x="247" d="M125 853L197 721H46L-32 853H125ZM207 0H40V692H207V0Z" />
<glyph unicode="&#xcd;" glyph-name="Iacute" horiz-adv-x="247" d="M278 853L200 721H47L119 853H278ZM207 0H40V692H207V0Z" />
<glyph unicode="&#xce;" glyph-name="Icircumflex" horiz-adv-x="247" d="M207 853L306 721H162L123 765L84 721H-60L39 853H207ZM207 0H40V692H207V0Z" />
<glyph unicode="&#xcf;" glyph-name="Idieresis" horiz-adv-x="247" d="M20 712Q-15 712 -39 736T-63 795Q-63 830 -39 853T20 877Q58 877 82 854T106 795Q106 760 81 736T20 712ZM225 712Q190 712 166 736T142 795Q142 830 166 853T225 877Q263 877 287 854T311
795Q311 760 286 736T225 712ZM207 0H40V692H207V0Z" />
<glyph unicode="&#xd0;" glyph-name="Eth" horiz-adv-x="604" d="M215 692Q301 692 369 669T485 602T558 493T584 348Q584 267 559 203T486 93T370 24T215 0H57V271H7V429H57V692H215ZM224 429H307V271H224V147Q265 147 299 159T358 196T396 259T410 347Q410 447
360 496T224 545V429Z" />
<glyph unicode="&#xd1;" glyph-name="Ntilde" horiz-adv-x="673" d="M404 723Q386 723 372 727T347 737T325 746T306 751Q281 751 281 721H168Q166 752 173 779T196 825T234 855T285 866Q305 866 319 862T343 852T363 843T382 838Q405 838 405 868H518Q522 801
491 762T404 723ZM201 409V0H40V692H212L472 274V692H633V0H468L201 409Z" />
<glyph unicode="&#xd2;" glyph-name="Ograve" horiz-adv-x="766" d="M390 853L462 721H311L233 853H390ZM20 345Q20 420 46 486T119 600T233 677T379 705Q464 705 532 678T647 602T720 489T746 348Q746 272 721 206T648 92T534 15T384 -13Q299 -13 232 14T117
90T45 203T20 345ZM195 346Q195 303 208 266T245 202T305 159T383 143Q429 143 464 159T523 202T559 267T571 346Q571 388 558 425T521 489T462 533T382 549Q336 549 301 533T243 490T207 425T195 346Z" />
<glyph unicode="&#xd3;" glyph-name="Oacute" horiz-adv-x="766" d="M530 853L452 721H299L371 853H530ZM20 345Q20 420 46 486T119 600T233 677T379 705Q464 705 532 678T647 602T720 489T746 348Q746 272 721 206T648 92T534 15T384 -13Q299 -13 232 14T117
90T45 203T20 345ZM195 346Q195 303 208 266T245 202T305 159T383 143Q429 143 464 159T523 202T559 267T571 346Q571 388 558 425T521 489T462 533T382 549Q336 549 301 533T243 490T207 425T195 346Z" />
<glyph unicode="&#xd4;" glyph-name="Ocircumflex" horiz-adv-x="766" d="M467 853L566 721H422L383 765L344 721H200L299 853H467ZM20 345Q20 420 46 486T119 600T233 677T379 705Q464 705 532 678T647 602T720 489T746 348Q746 272 721 206T648 92T534 15T384
-13Q299 -13 232 14T117 90T45 203T20 345ZM195 346Q195 303 208 266T245 202T305 159T383 143Q429 143 464 159T523 202T559 267T571 346Q571 388 558 425T521 489T462 533T382 549Q336 549 301 533T243 490T207 425T195 346Z" />
<glyph unicode="&#xd5;" glyph-name="Otilde" horiz-adv-x="766" d="M443 723Q425 723 411 727T386 737T364 746T345 751Q320 751 320 721H207Q205 752 212 779T235 825T273 855T324 866Q344 866 358 862T382 852T402 843T421 838Q444 838 444 868H557Q561 801
530 762T443 723ZM20 345Q20 420 46 486T119 600T233 677T379 705Q464 705 532 678T647 602T720 489T746 348Q746 272 721 206T648 92T534 15T384 -13Q299 -13 232 14T117 90T45 203T20 345ZM195 346Q195 303 208 266T245 202T305 159T383 143Q429 143 464 159T523
202T559 267T571 346Q571 388 558 425T521 489T462 533T382 549Q336 549 301 533T243 490T207 425T195 346Z" />
<glyph unicode="&#xd6;" glyph-name="Odieresis" horiz-adv-x="766" d="M279 712Q244 712 220 736T196 795Q196 830 220 853T279 877Q317 877 341 854T365 795Q365 760 340 736T279 712ZM484 712Q449 712 425 736T401 795Q401 830 425 853T484 877Q522 877 546
854T570 795Q570 760 545 736T484 712ZM20 345Q20 420 46 486T119 600T233 677T379 705Q464 705 532 678T647 602T720 489T746 348Q746 272 721 206T648 92T534 15T384 -13Q299 -13 232 14T117 90T45 203T20 345ZM195 346Q195 303 208 266T245 202T305 159T383
143Q429 143 464 159T523 202T559 267T571 346Q571 388 558 425T521 489T462 533T382 549Q336 549 301 533T243 490T207 425T195 346Z" />
<glyph unicode="&#xd7;" glyph-name="multiply" horiz-adv-x="433" d="M108 538L216 428L325 537L418 443L310 335L418 227L326 134L217 242L108 133L15 227L123 335L15 444L108 538Z" />
<glyph unicode="&#xd8;" glyph-name="Oslash" horiz-adv-x="766" d="M20 345Q20 420 46 485T119 599T232 675T377 703Q431 703 480 691T564 657L612 711L718 618L672 566Q701 528 721 472T742 348Q742 273 717 208T645 94T531 18T382 -10Q322 -10 277 2T200 33L150
-24L44 68L92 122Q57 167 39 224T20 345ZM192 346Q192 321 196 298T209 255L458 537Q423 552 380 552Q335 552 300 536T241 492T205 427T192 346ZM570 346Q570 369 566 391T554 433L308 155Q342 141 381 141Q427 141 462 157T521 200T557 265T570 346Z" />
<glyph unicode="&#xd9;" glyph-name="Ugrave" horiz-adv-x="644" d="M332 853L404 721H253L175 853H332ZM321 -13Q248 -13 195 8T106 67T54 158T37 276V692H204V276Q204 217 232 181T323 144Q383 144 411 181T440 277V692H607V277Q607 214 589 161T535 70T446 9T321 -13Z" />
<glyph unicode="&#xda;" glyph-name="Uacute" horiz-adv-x="644" d="M475 853L397 721H244L316 853H475ZM321 -13Q248 -13 195 8T106 67T54 158T37 276V692H204V276Q204 217 232 181T323 144Q383 144 411 181T440 277V692H607V277Q607 214 589 161T535 70T446 9T321 -13Z" />
<glyph unicode="&#xdb;" glyph-name="Ucircumflex" horiz-adv-x="644" d="M407 853L506 721H362L323 765L284 721H140L239 853H407ZM321 -13Q248 -13 195 8T106 67T54 158T37 276V692H204V276Q204 217 232 181T323 144Q383 144 411 181T440 277V692H607V277Q607
214 589 161T535 70T446 9T321 -13Z" />
<glyph unicode="&#xdc;" glyph-name="Udieresis" horiz-adv-x="644" d="M217 712Q182 712 158 736T134 795Q134 830 158 853T217 877Q255 877 279 854T303 795Q303 760 278 736T217 712ZM422 712Q387 712 363 736T339 795Q339 830 363 853T422 877Q460 877 484
854T508 795Q508 760 483 736T422 712ZM321 -13Q248 -13 195 8T106 67T54 158T37 276V692H204V276Q204 217 232 181T323 144Q383 144 411 181T440 277V692H607V277Q607 214 589 161T535 70T446 9T321 -13Z" />
<glyph unicode="&#xdd;" glyph-name="Yacute" horiz-adv-x="530" d="M427 853L349 721H196L268 853H427ZM-12 692H173L269 503L366 692H542L346 343V0H180V340L-12 692Z" />
<glyph unicode="&#xde;" glyph-name="Thorn" horiz-adv-x="512" d="M496 353Q496 303 481 264T437 197T368 154T278 139H206V0H40V692H206V559H278Q387 559 441 506T496 353ZM206 415V287H264Q293 287 308 305T324 352Q324 381 308 398T264 415H206Z" />
<glyph unicode="&#xdf;" glyph-name="germandbls" horiz-adv-x="533" d="M237 134H249Q295 135 325 164T357 244Q357 269 349 289T326 323T291 346T248 354H237V484H254Q282 484 298 502T314 544Q314 571 298 587T252 603Q220 603 207 583T193 541V0H32V526Q32
570 44 608T82 675T152 720T257 737Q355 737 412 691T470 556Q470 514 452 485T415 444Q457 417 487 369T517 242Q517 186 498 141T445 63T362 15T253 0H237V134Z" />
<glyph unicode="&#xe0;" glyph-name="agrave" horiz-adv-x="476" d="M17 177Q17 217 29 249T66 305T123 340T199 353Q232 353 254 347T287 334V356Q287 379 276 396T235 414Q206 414 196 399T186 368H37Q39 449 87 495T234 541Q297 541 338 525T403 482T436 416T446
332V0H314V29Q295 12 269 3T204 -6Q165 -6 131 6T72 42T32 100T17 177ZM168 181Q168 155 185 138T229 121Q255 121 272 138T290 181Q290 208 272 224T228 240Q202 240 185 224T168 181ZM245 708L320 568H170L88 708H245Z" />
<glyph unicode="&#xe1;" glyph-name="aacute" horiz-adv-x="476" d="M17 177Q17 217 29 249T66 305T123 340T199 353Q232 353 254 347T287 334V356Q287 379 276 396T235 414Q206 414 196 399T186 368H37Q39 449 87 495T234 541Q297 541 338 525T403 482T436 416T446
332V0H314V29Q295 12 269 3T204 -6Q165 -6 131 6T72 42T32 100T17 177ZM168 181Q168 155 185 138T229 121Q255 121 272 138T290 181Q290 208 272 224T228 240Q202 240 185 224T168 181ZM399 708L317 568H167L242 708H399Z" />
<glyph unicode="&#xe2;" glyph-name="acircumflex" horiz-adv-x="476" d="M17 177Q17 217 29 249T66 305T123 340T199 353Q232 353 254 347T287 334V356Q287 379 276 396T235 414Q206 414 196 399T186 368H37Q39 449 87 495T234 541Q297 541 338 525T403 482T436
416T446 332V0H314V29Q295 12 269 3T204 -6Q165 -6 131 6T72 42T32 100T17 177ZM168 181Q168 155 185 138T229 121Q255 121 272 138T290 181Q290 208 272 224T228 240Q202 240 185 224T168 181ZM318 710L411 567H273L238 617L203 567H65L158 710H318Z" />
<glyph unicode="&#xe3;" glyph-name="atilde" horiz-adv-x="476" d="M17 177Q17 217 29 249T66 305T123 340T199 353Q232 353 254 347T287 334V356Q287 379 276 396T235 414Q206 414 196 399T186 368H37Q39 449 87 495T234 541Q297 541 338 525T403 482T436 416T446
332V0H314V29Q295 12 269 3T204 -6Q165 -6 131 6T72 42T32 100T17 177ZM168 181Q168 155 185 138T229 121Q255 121 272 138T290 181Q290 208 272 224T228 240Q202 240 185 224T168 181ZM298 566Q280 566 267 570T242 580T222 589T203 594Q180 594 180 564H68Q66
595 73 622T96 668T133 698T183 709Q203 709 216 705T240 695T258 686T277 681Q298 681 298 711H410Q414 644 384 605T298 566Z" />
<glyph unicode="&#xe4;" glyph-name="adieresis" horiz-adv-x="476" d="M17 177Q17 217 29 249T66 305T123 340T199 353Q232 353 254 347T287 334V356Q287 379 276 396T235 414Q206 414 196 399T186 368H37Q39 449 87 495T234 541Q297 541 338 525T403 482T436
416T446 332V0H314V29Q295 12 269 3T204 -6Q165 -6 131 6T72 42T32 100T17 177ZM168 181Q168 155 185 138T229 121Q255 121 272 138T290 181Q290 208 272 224T228 240Q202 240 185 224T168 181ZM397 562Q362 562 338 586T314 645Q314 680 338 703T397 727Q435 727
459 704T483 645Q483 610 458 586T397 562ZM590 562Q555 562 531 586T507 645Q507 680 531 703T590 727Q628 727 652 704T676 645Q676 610 651 586T590 562Z" />
<glyph unicode="&#xe5;" glyph-name="aring" horiz-adv-x="476" d="M17 177Q17 217 29 249T66 305T123 340T199 353Q232 353 254 347T287 334V356Q287 379 276 396T235 414Q206 414 196 399T186 368H37Q39 449 87 495T234 541Q297 541 338 525T403 482T436 416T446
332V0H314V29Q295 12 269 3T204 -6Q165 -6 131 6T72 42T32 100T17 177ZM168 181Q168 155 185 138T229 121Q255 121 272 138T290 181Q290 208 272 224T228 240Q202 240 185 224T168 181ZM123 666Q123 690 131 710T155 744T190 767T235 776Q288 776 319 745T350 668Q350
620 319 589T236 558Q186 558 155 589T123 666ZM195 668Q195 648 207 636T237 624Q254 624 266 636T278 668Q278 686 267 698T237 710Q218 710 207 698T195 668Z" />
<glyph unicode="&#xe6;" glyph-name="ae" horiz-adv-x="819" d="M556 -9Q440 -9 366 56Q357 45 345 34T314 13T273 -3T219 -9Q175 -9 138 3T74 40T32 98T17 174Q17 214 30 247T67 303T125 340T203 353Q234 353 255 348T287 335V356Q287 379 276 396T235 414Q206
414 196 399T186 368H37Q39 449 87 495T235 541Q291 541 327 526T385 486Q405 505 445 524T544 544Q605 544 653 525T736 471T788 386T806 277Q806 266 806 248T804 215H449Q452 183 479 158T557 133Q599 133 625 153T665 196L788 124Q777 101 758 77T711 34T644
3T556 -9ZM544 410Q502 410 480 385T453 328H639Q636 361 612 385T544 410ZM168 181Q168 155 185 138T229 121Q255 121 272 138T290 181Q290 208 272 224T228 240Q202 240 185 224T168 181Z" />
<glyph unicode="&#xe7;" glyph-name="ccedilla" horiz-adv-x="475" d="M204 -264V-177H226Q243 -176 252 -169T262 -144Q262 -128 253 -120T226 -112H204V3Q160 16 125 41T66 100T29 177T16 266Q16 324 36 375T94 463T182 522T293 544Q327 544 355 538T405 523T445
501T474 478L385 364Q372 375 350 387T295 399Q266 399 244 389T207 361T184 319T176 267Q176 236 186 212T212 171T250 145T296 136Q329 136 350 148T385 171L474 57Q462 46 445 34T405 13T355 -3T295 -9H292V-34Q334 -48 349 -78T365 -144Q365 -201 329 -232T224
-264H204Z" />
<glyph unicode="&#xe8;" glyph-name="egrave" horiz-adv-x="555" d="M183 215Q188 177 216 155T292 133Q335 133 361 153T401 196L524 124Q513 101 494 77T447 34T380 3T291 -9Q230 -9 180 10T93 64T36 150T16 265Q16 325 35 376T89 464T172 523T279 544Q340 544
389 525T472 471T524 386T542 277Q542 265 542 250T540 215H183ZM279 410Q237 410 214 385T187 328H375Q372 361 348 385T279 410ZM285 708L360 568H210L128 708H285Z" />
<glyph unicode="&#xe9;" glyph-name="eacute" horiz-adv-x="555" d="M183 215Q188 177 216 155T292 133Q335 133 361 153T401 196L524 124Q513 101 494 77T447 34T380 3T291 -9Q230 -9 180 10T93 64T36 150T16 265Q16 325 35 376T89 464T172 523T279 544Q340 544
389 525T472 471T524 386T542 277Q542 265 542 250T540 215H183ZM279 410Q237 410 214 385T187 328H375Q372 361 348 385T279 410ZM439 708L357 568H207L282 708H439Z" />
<glyph unicode="&#xea;" glyph-name="ecircumflex" horiz-adv-x="555" d="M183 215Q188 177 216 155T292 133Q335 133 361 153T401 196L524 124Q513 101 494 77T447 34T380 3T291 -9Q230 -9 180 10T93 64T36 150T16 265Q16 325 35 376T89 464T172 523T279 544Q340
544 389 525T472 471T524 386T542 277Q542 265 542 250T540 215H183ZM279 410Q237 410 214 385T187 328H375Q372 361 348 385T279 410ZM357 710L450 567H312L277 617L242 567H104L197 710H357Z" />
<glyph unicode="&#xeb;" glyph-name="edieresis" horiz-adv-x="555" d="M183 215Q188 177 216 155T292 133Q335 133 361 153T401 196L524 124Q513 101 494 77T447 34T380 3T291 -9Q230 -9 180 10T93 64T36 150T16 265Q16 325 35 376T89 464T172 523T279 544Q340
544 389 525T472 471T524 386T542 277Q542 265 542 250T540 215H183ZM279 410Q237 410 214 385T187 328H375Q372 361 348 385T279 410ZM183 562Q148 562 124 586T100 645Q100 680 124 703T183 727Q221 727 245 704T269 645Q269 610 244 586T183 562ZM376 562Q341
562 317 586T293 645Q293 680 317 703T376 727Q414 727 438 704T462 645Q462 610 437 586T376 562Z" />
<glyph unicode="&#xec;" glyph-name="igrave" horiz-adv-x="225" d="M193 0H32V535H193V0ZM113 708L188 568H38L-44 708H113Z" />
<glyph unicode="&#xed;" glyph-name="iacute" horiz-adv-x="225" d="M193 0H32V535H193V0ZM528 708L446 568H296L371 708H528Z" />
<glyph unicode="&#xee;" glyph-name="icircumflex" horiz-adv-x="225" d="M193 710L286 567H148L113 617L78 567H-60L33 710H193ZM193 0H32V535H193V0Z" />
<glyph unicode="&#xef;" glyph-name="idieresis" horiz-adv-x="225" d="M15 562Q-20 562 -44 586T-68 645Q-68 680 -44 703T15 727Q53 727 77 704T101 645Q101 610 76 586T15 562ZM208 562Q173 562 149 586T125 645Q125 680 149 703T208 727Q246 727 270 704T294
645Q294 610 269 586T208 562ZM193 0H32V535H193V0Z" />
<glyph unicode="&#xf0;" glyph-name="eth" horiz-adv-x="595" d="M327 705L426 730L454 620L408 608L464 541Q489 510 510 480T547 417T570 351T579 277Q579 217 560 165T505 74T418 13T303 -9Q239 -9 187 11T96 68T37 154T16 265Q16 329 38 378T97 461T181 512T280
530L250 569L139 541L110 650L175 666L125 731H306L327 705ZM176 266Q176 238 185 214T210 173T248 146T298 136Q355 136 387 173T419 266Q419 294 410 318T385 359T347 387T297 397Q240 397 208 360T176 266Z" />
<glyph unicode="&#xf1;" glyph-name="ntilde" horiz-adv-x="498" d="M307 333Q307 362 293 380T250 398Q222 398 208 381T193 334V0H32V535H193V501Q197 505 205 512T227 525T258 536T301 541Q348 541 380 526T431 485T459 425T468 352V0H307V333ZM305 566Q287
566 274 570T249 580T229 589T210 594Q187 594 187 564H75Q73 595 80 622T103 668T140 698T190 709Q210 709 223 705T247 695T265 686T284 681Q305 681 305 711H417Q421 644 391 605T305 566Z" />
<glyph unicode="&#xf2;" glyph-name="ograve" horiz-adv-x="595" d="M176 267Q176 239 185 215T210 174T248 146T298 136Q326 136 348 146T387 173T411 215T419 267Q419 295 410 319T385 361T347 389T297 399Q268 399 246 389T208 361T184 319T176 267ZM16 266Q16
324 36 375T94 463T183 522T296 544Q362 544 414 523T503 465T559 378T579 269Q579 210 559 160T502 72T413 13T297 -9Q232 -9 181 12T92 70T36 157T16 266ZM306 708L381 568H231L149 708H306Z" />
<glyph unicode="&#xf3;" glyph-name="oacute" horiz-adv-x="595" d="M176 267Q176 239 185 215T210 174T248 146T298 136Q326 136 348 146T387 173T411 215T419 267Q419 295 410 319T385 361T347 389T297 399Q268 399 246 389T208 361T184 319T176 267ZM16 266Q16
324 36 375T94 463T183 522T296 544Q362 544 414 523T503 465T559 378T579 269Q579 210 559 160T502 72T413 13T297 -9Q232 -9 181 12T92 70T36 157T16 266ZM459 708L377 568H227L302 708H459Z" />
<glyph unicode="&#xf4;" glyph-name="ocircumflex" horiz-adv-x="595" d="M176 267Q176 239 185 215T210 174T248 146T298 136Q326 136 348 146T387 173T411 215T419 267Q419 295 410 319T385 361T347 389T297 399Q268 399 246 389T208 361T184 319T176 267ZM16
266Q16 324 36 375T94 463T183 522T296 544Q362 544 414 523T503 465T559 378T579 269Q579 210 559 160T502 72T413 13T297 -9Q232 -9 181 12T92 70T36 157T16 266ZM377 710L470 567H332L297 617L262 567H124L217 710H377Z" />
<glyph unicode="&#xf5;" glyph-name="otilde" horiz-adv-x="595" d="M176 267Q176 239 185 215T210 174T248 146T298 136Q326 136 348 146T387 173T411 215T419 267Q419 295 410 319T385 361T347 389T297 399Q268 399 246 389T208 361T184 319T176 267ZM16 266Q16
324 36 375T94 463T183 522T296 544Q362 544 414 523T503 465T559 378T579 269Q579 210 559 160T502 72T413 13T297 -9Q232 -9 181 12T92 70T36 157T16 266ZM357 566Q339 566 326 570T301 580T281 589T262 594Q239 594 239 564H127Q125 595 132 622T155 668T192
698T242 709Q262 709 275 705T299 695T317 686T336 681Q357 681 357 711H469Q473 644 443 605T357 566Z" />
<glyph unicode="&#xf6;" glyph-name="odieresis" horiz-adv-x="595" d="M176 267Q176 239 185 215T210 174T248 146T298 136Q326 136 348 146T387 173T411 215T419 267Q419 295 410 319T385 361T347 389T297 399Q268 399 246 389T208 361T184 319T176 267ZM16
266Q16 324 36 375T94 463T183 522T296 544Q362 544 414 523T503 465T559 378T579 269Q579 210 559 160T502 72T413 13T297 -9Q232 -9 181 12T92 70T36 157T16 266ZM199 562Q164 562 140 586T116 645Q116 680 140 703T199 727Q237 727 261 704T285 645Q285 610
260 586T199 562ZM392 562Q357 562 333 586T309 645Q309 680 333 703T392 727Q430 727 454 704T478 645Q478 610 453 586T392 562Z" />
<glyph unicode="&#xf7;" glyph-name="divide" horiz-adv-x="475" d="M238 70Q202 70 177 95T151 157Q151 193 176 218T238 243Q275 243 299 218T324 157Q324 121 299 96T238 70ZM238 429Q202 429 177 454T151 516Q151 552 176 577T238 602Q275 602 299 577T324
516Q324 480 299 455T238 429ZM30 404H445V270H30V404Z" />
<glyph unicode="&#xf8;" glyph-name="oslash" horiz-adv-x="595" d="M16 267Q16 325 36 376T94 464T183 522T296 544Q338 544 372 535T433 512L470 554L555 481L521 442Q549 407 564 364T579 269Q579 210 559 160T502 72T413 13T297 -9Q254 -9 218 0T159 24L119
-22L35 50L73 94Q46 128 31 172T16 267ZM425 267Q425 295 416 321L255 134Q274 128 298 128Q329 128 352 138T392 168T416 212T425 267ZM170 267Q170 237 177 215L337 400Q328 403 318 405T297 407Q235 407 203 367T170 267Z" />
<glyph unicode="&#xf9;" glyph-name="ugrave" horiz-adv-x="495" d="M191 203Q191 174 203 156T245 138Q273 138 287 156T302 203V535H463V0H303V34Q294 24 268 9T197 -6Q152 -6 121 8T69 47T39 107T30 184V535H191V203ZM256 708L331 568H181L99 708H256Z" />
<glyph unicode="&#xfa;" glyph-name="uacute" horiz-adv-x="495" d="M191 203Q191 174 203 156T245 138Q273 138 287 156T302 203V535H463V0H303V34Q294 24 268 9T197 -6Q152 -6 121 8T69 47T39 107T30 184V535H191V203ZM654 708L572 568H422L497 708H654Z" />
<glyph unicode="&#xfb;" glyph-name="ucircumflex" horiz-adv-x="495" d="M191 203Q191 174 203 156T245 138Q273 138 287 156T302 203V535H463V0H303V34Q294 24 268 9T197 -6Q152 -6 121 8T69 47T39 107T30 184V535H191V203ZM327 710L420 567H282L247 617L212
567H74L167 710H327Z" />
<glyph unicode="&#xfc;" glyph-name="udieresis" horiz-adv-x="495" d="M191 203Q191 174 203 156T245 138Q273 138 287 156T302 203V535H463V0H303V34Q294 24 268 9T197 -6Q152 -6 121 8T69 47T39 107T30 184V535H191V203ZM147 562Q112 562 88 586T64 645Q64
680 88 703T147 727Q185 727 209 704T233 645Q233 610 208 586T147 562ZM340 562Q305 562 281 586T257 645Q257 680 281 703T340 727Q378 727 402 704T426 645Q426 610 401 586T340 562Z" />
<glyph unicode="&#xfd;" glyph-name="yacute" horiz-adv-x="539" d="M123 -175L196 29L0 535H177L278 248L378 535H542L278 -175H123ZM426 708L344 568H194L269 708H426Z" />
<glyph unicode="&#xfe;" glyph-name="thorn" horiz-adv-x="614" d="M188 267Q188 209 222 172T313 134Q373 134 405 172T437 267Q437 325 404 363T312 401Q252 401 220 363T188 267ZM193 -177H32V730H193V504Q213 518 248 531T333 544Q396 544 445 524T528 467T580
380T598 269Q598 211 579 161T525 73T438 13T321 -9Q281 -9 247 1T193 24V-177Z" />
<glyph unicode="&#xff;" glyph-name="ydieresis" horiz-adv-x="539" d="M123 -175L196 29L0 535H177L278 248L378 535H542L278 -175H123ZM180 562Q145 562 121 586T97 645Q97 680 121 703T180 727Q218 727 242 704T266 645Q266 610 241 586T180 562ZM373 562Q338
562 314 586T290 645Q290 680 314 703T373 727Q411 727 435 704T459 645Q459 610 434 586T373 562Z" />
<glyph unicode="&#x100;" glyph-name="Amacron" horiz-adv-x="658" d="M189 838H455V722H189V838ZM431 165H213L156 0H-8L234 692H410L666 0H489L431 165ZM261 305H383L322 480L261 305Z" />
<glyph unicode="&#x101;" glyph-name="amacron" horiz-adv-x="476" d="M17 177Q17 217 29 249T66 305T123 340T199 353Q232 353 254 347T287 334V356Q287 379 276 396T235 414Q206 414 196 399T186 368H37Q39 449 87 495T234 541Q297 541 338 525T403 482T436
416T446 332V0H314V29Q295 12 269 3T204 -6Q165 -6 131 6T72 42T32 100T17 177ZM168 181Q168 155 185 138T229 121Q255 121 272 138T290 181Q290 208 272 224T228 240Q202 240 185 224T168 181ZM114 692H364V576H114V692Z" />
<glyph unicode="&#x102;" glyph-name="Abreve" horiz-adv-x="658" d="M322 718Q282 718 253 729T204 760T176 805T167 858H287Q287 843 296 834T323 824Q340 824 349 833T359 858H478Q478 831 469 806T441 761T392 730T322 718ZM431 165H213L156 0H-8L234 692H410L666
0H489L431 165ZM261 305H383L322 480L261 305Z" />
<glyph unicode="&#x103;" glyph-name="abreve" horiz-adv-x="476" d="M17 177Q17 217 29 249T66 305T123 340T199 353Q232 353 254 347T287 334V356Q287 379 276 396T235 414Q206 414 196 399T186 368H37Q39 449 87 495T234 541Q297 541 338 525T403 482T436 416T446
332V0H314V29Q295 12 269 3T204 -6Q165 -6 131 6T72 42T32 100T17 177ZM168 181Q168 155 185 138T229 121Q255 121 272 138T290 181Q290 208 272 224T228 240Q202 240 185 224T168 181ZM237 560Q197 560 168 573T121 607T94 655T85 710H202Q202 689 211 677T238
665Q255 665 264 677T274 710H390Q390 682 382 655T354 607T306 573T237 560Z" />
<glyph unicode="&#x104;" glyph-name="Aogonek" horiz-adv-x="658" d="M431 165H213L156 0H-8L234 692H410L666 0Q643 -2 635 -12T626 -34Q626 -49 637 -57T666 -65V-175Q616 -178 580 -172T521 -152T487 -119T476 -77Q476 -53 489 -33T526 0H489L431 165ZM261
305H383L322 480L261 305Z" />
<glyph unicode="&#x105;" glyph-name="aogonek" horiz-adv-x="476" d="M17 177Q17 217 29 249T66 305T123 340T199 353Q232 353 254 347T287 334V356Q287 379 276 396T235 414Q206 414 196 399T186 368H37Q39 449 87 495T234 541Q297 541 338 525T403 482T436
416T446 332V0Q423 -2 415 -12T406 -34Q406 -49 417 -57T446 -65V-175Q396 -178 360 -172T301 -152T267 -119T256 -77Q256 -51 270 -30T314 4V29Q295 12 269 3T204 -6Q165 -6 131 6T72 42T32 100T17 177ZM168 181Q168 155 185 138T229 121Q255 121 272 138T290
181Q290 208 272 224T228 240Q202 240 185 224T168 181Z" />
<glyph unicode="&#x106;" glyph-name="Cacute" horiz-adv-x="631" d="M533 853L455 721H302L374 853H533ZM618 77Q573 35 517 11T388 -13Q302 -13 234 14T118 90T45 203T20 345Q20 420 46 485T119 600T234 677T385 705Q464 705 520 682T619 623L520 497Q501 514
468 531T387 549Q341 549 305 533T245 490T208 425T195 346Q195 303 209 266T248 202T308 159T388 143Q432 143 464 159T520 195L618 77Z" />
<glyph unicode="&#x107;" glyph-name="cacute" horiz-adv-x="475" d="M296 136Q329 136 350 148T385 171L474 57Q462 46 445 34T405 13T355 -3T295 -9Q230 -9 179 12T91 71T36 158T16 266Q16 324 36 375T94 463T182 522T293 544Q327 544 355 538T405 523T445 501T474
478L385 364Q372 375 350 387T295 399Q266 399 244 389T207 361T184 319T176 267Q176 236 186 212T212 171T250 145T296 136ZM444 708L362 568H212L287 708H444Z" />
<glyph unicode="&#x108;" glyph-name="Ccircumflex" horiz-adv-x="631" d="M449 853L548 721H404L365 765L326 721H182L281 853H449ZM618 77Q573 35 517 11T388 -13Q302 -13 234 14T118 90T45 203T20 345Q20 420 46 485T119 600T234 677T385 705Q464 705 520 682T619
623L520 497Q501 514 468 531T387 549Q341 549 305 533T245 490T208 425T195 346Q195 303 209 266T248 202T308 159T388 143Q432 143 464 159T520 195L618 77Z" />
<glyph unicode="&#x109;" glyph-name="ccircumflex" horiz-adv-x="475" d="M296 136Q329 136 350 148T385 171L474 57Q462 46 445 34T405 13T355 -3T295 -9Q230 -9 179 12T91 71T36 158T16 266Q16 324 36 375T94 463T182 522T293 544Q327 544 355 538T405 523T445
501T474 478L385 364Q372 375 350 387T295 399Q266 399 244 389T207 361T184 319T176 267Q176 236 186 212T212 171T250 145T296 136ZM352 710L445 567H307L272 617L237 567H99L192 710H352Z" />
<glyph unicode="&#x10a;" glyph-name="Cdotaccent" horiz-adv-x="631" d="M369 722Q351 722 336 728T308 747T289 774T282 808Q282 843 306 868T368 893Q406 893 431 869T457 808Q457 772 432 747T369 722ZM618 77Q573 35 517 11T388 -13Q302 -13 234 14T118 90T45
203T20 345Q20 420 46 485T119 600T234 677T385 705Q464 705 520 682T619 623L520 497Q501 514 468 531T387 549Q341 549 305 533T245 490T208 425T195 346Q195 303 209 266T248 202T308 159T388 143Q432 143 464 159T520 195L618 77Z" />
<glyph unicode="&#x10b;" glyph-name="cdotaccent" horiz-adv-x="475" d="M296 136Q329 136 350 148T385 171L474 57Q462 46 445 34T405 13T355 -3T295 -9Q230 -9 179 12T91 71T36 158T16 266Q16 324 36 375T94 463T182 522T293 544Q327 544 355 538T405 523T445
501T474 478L385 364Q372 375 350 387T295 399Q266 399 244 389T207 361T184 319T176 267Q176 236 186 212T212 171T250 145T296 136ZM276 560Q240 560 215 584T189 646Q189 682 213 706T275 731Q313 731 338 707T364 646Q364 609 339 585T276 560Z" />
<glyph unicode="&#x10c;" glyph-name="Ccaron" horiz-adv-x="631" d="M289 721L190 853H334L373 809L412 853H556L457 721H289ZM618 77Q573 35 517 11T388 -13Q302 -13 234 14T118 90T45 203T20 345Q20 420 46 485T119 600T234 677T385 705Q464 705 520 682T619
623L520 497Q501 514 468 531T387 549Q341 549 305 533T245 490T208 425T195 346Q195 303 209 266T248 202T308 159T388 143Q432 143 464 159T520 195L618 77Z" />
<glyph unicode="&#x10d;" glyph-name="ccaron" horiz-adv-x="475" d="M296 136Q329 136 350 148T385 171L474 57Q462 46 445 34T405 13T355 -3T295 -9Q230 -9 179 12T91 71T36 158T16 266Q16 324 36 375T94 463T182 522T293 544Q327 544 355 538T405 523T445 501T474
478L385 364Q372 375 350 387T295 399Q266 399 244 389T207 361T184 319T176 267Q176 236 186 212T212 171T250 145T296 136ZM190 567L97 710H235L270 660L305 710H443L350 567H190Z" />
<glyph unicode="&#x10e;" glyph-name="Dcaron" horiz-adv-x="587" d="M192 721L93 853H237L276 809L315 853H459L360 721H192ZM198 692Q284 692 352 669T468 602T541 493T567 348Q567 267 542 203T469 93T353 24T198 0H40V692H198ZM207 147Q248 147 282 159T341
196T379 259T393 347Q393 447 343 496T207 545V147Z" />
<glyph unicode="&#x10f;" glyph-name="dcaron" horiz-adv-x="614" d="M434 35Q407 12 370 2T293 -9Q230 -9 179 11T92 68T36 155T16 266Q16 323 35 374T90 462T175 522T286 544Q331 544 364 535T421 511V731H582V0H434V35ZM176 268Q176 240 185 216T210 173T250
145T301 135Q331 135 354 145T393 174T417 216T426 268Q426 296 417 320T392 363T353 391T301 402Q272 402 249 392T209 363T185 321T176 268ZM748 731L735 568H610L620 731H748Z" />
<glyph unicode="&#x110;" glyph-name="Dcroat" horiz-adv-x="604" d="M215 692Q301 692 369 669T485 602T558 493T584 348Q584 267 559 203T486 93T370 24T215 0H57V271H7V429H57V692H215ZM224 429H307V271H224V147Q265 147 299 159T358 196T396 259T410 347Q410
447 360 496T224 545V429Z" />
<glyph unicode="&#x111;" glyph-name="dcroat" horiz-adv-x="626" d="M295 681H421V731H582V681H625V571H582V0H434V35Q407 12 370 2T293 -9Q230 -9 179 11T92 68T36 155T16 266Q16 323 35 374T90 462T175 522T286 544Q331 544 364 535T421 511V571H295V681ZM176
268Q176 240 185 216T210 173T250 145T301 135Q331 135 354 145T393 174T417 216T426 268Q426 296 417 320T392 363T353 391T301 402Q272 402 249 392T209 363T185 321T176 268Z" />
<glyph unicode="&#x112;" glyph-name="Emacron" horiz-adv-x="401" d="M75 838H341V722H75V838ZM40 0V692H368V536H207V429H363V275H207V156H371V0H40Z" />
<glyph unicode="&#x113;" glyph-name="emacron" horiz-adv-x="555" d="M183 215Q188 177 216 155T292 133Q335 133 361 153T401 196L524 124Q513 101 494 77T447 34T380 3T291 -9Q230 -9 180 10T93 64T36 150T16 265Q16 325 35 376T89 464T172 523T279 544Q340
544 389 525T472 471T524 386T542 277Q542 265 542 250T540 215H183ZM279 410Q237 410 214 385T187 328H375Q372 361 348 385T279 410ZM157 692H407V576H157V692Z" />
<glyph unicode="&#x114;" glyph-name="Ebreve" horiz-adv-x="401" d="M207 718Q167 718 138 729T89 760T61 805T52 858H172Q172 843 181 834T208 824Q225 824 234 833T244 858H363Q363 831 354 806T326 761T277 730T207 718ZM40 0V692H368V536H207V429H363V275H207V156H371V0H40Z"
/>
<glyph unicode="&#x115;" glyph-name="ebreve" horiz-adv-x="555" d="M183 215Q188 177 216 155T292 133Q335 133 361 153T401 196L524 124Q513 101 494 77T447 34T380 3T291 -9Q230 -9 180 10T93 64T36 150T16 265Q16 325 35 376T89 464T172 523T279 544Q340
544 389 525T472 471T524 386T542 277Q542 265 542 250T540 215H183ZM279 410Q237 410 214 385T187 328H375Q372 361 348 385T279 410ZM280 560Q240 560 211 573T164 607T137 655T128 710H245Q245 689 254 677T281 665Q298 665 307 677T317 710H433Q433 682 425
655T397 607T349 573T280 560Z" />
<glyph unicode="&#x116;" glyph-name="Edotaccent" horiz-adv-x="401" d="M202 722Q184 722 169 728T141 747T122 774T115 808Q115 843 139 868T201 893Q239 893 264 869T290 808Q290 772 265 747T202 722ZM40 0V692H368V536H207V429H363V275H207V156H371V0H40Z" />
<glyph unicode="&#x117;" glyph-name="edotaccent" horiz-adv-x="555" d="M183 215Q188 177 216 155T292 133Q335 133 361 153T401 196L524 124Q513 101 494 77T447 34T380 3T291 -9Q230 -9 180 10T93 64T36 150T16 265Q16 325 35 376T89 464T172 523T279 544Q340
544 389 525T472 471T524 386T542 277Q542 265 542 250T540 215H183ZM279 410Q237 410 214 385T187 328H375Q372 361 348 385T279 410ZM281 560Q245 560 220 584T194 646Q194 682 218 706T280 731Q318 731 343 707T369 646Q369 609 344 585T281 560Z" />
<glyph unicode="&#x118;" glyph-name="Eogonek" horiz-adv-x="401" d="M336 0Q315 -2 307 -12T298 -34Q298 -49 309 -57T338 -65V-175Q288 -178 252 -172T193 -152T159 -119T148 -77Q148 -53 161 -33T198 0H40V692H368V536H207V429H363V275H207V156H371V0H336Z" />
<glyph unicode="&#x119;" glyph-name="eogonek" horiz-adv-x="555" d="M256 -84Q256 -64 267 -44T303 -9H291Q230 -9 180 10T93 64T36 150T16 265Q16 325 35 376T89 464T172 523T279 544Q340 544 389 525T472 471T524 386T542 277Q542 265 542 250T540 215H183Q188
177 216 155T292 133Q335 133 361 153T401 196L524 124Q512 100 493 77T444 31Q421 14 413 0T404 -29Q404 -49 418 -57T455 -65V-175Q401 -178 363 -172T301 -154T267 -123T256 -84ZM279 410Q237 410 214 385T187 328H375Q372 361 348 385T279 410Z" />
<glyph unicode="&#x11a;" glyph-name="Ecaron" horiz-adv-x="401" d="M123 721L24 853H168L207 809L246 853H390L291 721H123ZM40 0V692H368V536H207V429H363V275H207V156H371V0H40Z" />
<glyph unicode="&#x11b;" glyph-name="ecaron" horiz-adv-x="555" d="M183 215Q188 177 216 155T292 133Q335 133 361 153T401 196L524 124Q513 101 494 77T447 34T380 3T291 -9Q230 -9 180 10T93 64T36 150T16 265Q16 325 35 376T89 464T172 523T279 544Q340
544 389 525T472 471T524 386T542 277Q542 265 542 250T540 215H183ZM279 410Q237 410 214 385T187 328H375Q372 361 348 385T279 410ZM201 567L108 710H246L281 660L316 710H454L361 567H201Z" />
<glyph unicode="&#x11c;" glyph-name="Gcircumflex" horiz-adv-x="736" d="M464 853L563 721H419L380 765L341 721H197L296 853H464ZM699 0H538V34Q513 14 474 1T379 -12Q299 -12 233 13T119 86T46 200T20 347Q20 419 45 484T117 598T230 676T379 705Q436 705
481 694T563 663T627 617T673 559L541 464Q530 479 516 494T482 522T437 541T378 549Q337 549 303 534T245 493T208 429T194 347Q194 300 208 262T249 198T310 157T387 142Q445 142 482 160T535 195V245H432V382H699V0Z" />
<glyph unicode="&#x11d;" glyph-name="gcircumflex" horiz-adv-x="611" d="M430 535H581V89Q581 14 560 -38T500 -122T408 -169T290 -184Q230 -184 181 -171T98 -140L146 -15Q169 -26 207 -36T291 -46Q346 -46 383 -27T421 32Q404 17 373 4T294 -9Q231 -9 180
11T93 67T36 154T16 266Q16 323 35 374T91 462T177 522T288 544Q379 544 430 501V535ZM176 267Q176 239 185 215T210 172T250 144T301 134Q331 134 354 144T393 173T417 215T426 267Q426 295 417 319T392 362T353 390T301 401Q272 401 249 391T209 362T185 320T176
267ZM387 710L480 567H342L307 617L272 567H134L227 710H387Z" />
<glyph unicode="&#x11e;" glyph-name="Gbreve" horiz-adv-x="736" d="M378 718Q338 718 309 729T260 760T232 805T223 858H343Q343 843 352 834T379 824Q396 824 405 833T415 858H534Q534 831 525 806T497 761T448 730T378 718ZM699 0H538V34Q513 14 474 1T379
-12Q299 -12 233 13T119 86T46 200T20 347Q20 419 45 484T117 598T230 676T379 705Q436 705 481 694T563 663T627 617T673 559L541 464Q530 479 516 494T482 522T437 541T378 549Q337 549 303 534T245 493T208 429T194 347Q194 300 208 262T249 198T310 157T387
142Q445 142 482 160T535 195V245H432V382H699V0Z" />
<glyph unicode="&#x11f;" glyph-name="gbreve" horiz-adv-x="611" d="M430 535H581V89Q581 14 560 -38T500 -122T408 -169T290 -184Q230 -184 181 -171T98 -140L146 -15Q169 -26 207 -36T291 -46Q346 -46 383 -27T421 32Q404 17 373 4T294 -9Q231 -9 180 11T93
67T36 154T16 266Q16 323 35 374T91 462T177 522T288 544Q379 544 430 501V535ZM176 267Q176 239 185 215T210 172T250 144T301 134Q331 134 354 144T393 173T417 215T426 267Q426 295 417 319T392 362T353 390T301 401Q272 401 249 391T209 362T185 320T176 267ZM297
560Q257 560 228 573T181 607T154 655T145 710H262Q262 689 271 677T298 665Q315 665 324 677T334 710H450Q450 682 442 655T414 607T366 573T297 560Z" />
<glyph unicode="&#x120;" glyph-name="Gdotaccent" horiz-adv-x="736" d="M383 722Q365 722 350 728T322 747T303 774T296 808Q296 843 320 868T382 893Q420 893 445 869T471 808Q471 772 446 747T383 722ZM699 0H538V34Q513 14 474 1T379 -12Q299 -12 233 13T119
86T46 200T20 347Q20 419 45 484T117 598T230 676T379 705Q436 705 481 694T563 663T627 617T673 559L541 464Q530 479 516 494T482 522T437 541T378 549Q337 549 303 534T245 493T208 429T194 347Q194 300 208 262T249 198T310 157T387 142Q445 142 482 160T535
195V245H432V382H699V0Z" />
<glyph unicode="&#x121;" glyph-name="gdotaccent" horiz-adv-x="611" d="M430 535H581V89Q581 14 560 -38T500 -122T408 -169T290 -184Q230 -184 181 -171T98 -140L146 -15Q169 -26 207 -36T291 -46Q346 -46 383 -27T421 32Q404 17 373 4T294 -9Q231 -9 180 11T93
67T36 154T16 266Q16 323 35 374T91 462T177 522T288 544Q379 544 430 501V535ZM176 267Q176 239 185 215T210 172T250 144T301 134Q331 134 354 144T393 173T417 215T426 267Q426 295 417 319T392 362T353 390T301 401Q272 401 249 391T209 362T185 320T176 267ZM292
560Q256 560 231 584T205 646Q205 682 229 706T291 731Q329 731 354 707T380 646Q380 609 355 585T292 560Z" />
<glyph unicode="&#x122;" glyph-name="Gcommaaccent" horiz-adv-x="736" d="M699 0H538V34Q513 14 474 1T379 -12Q299 -12 233 13T119 86T46 200T20 347Q20 419 45 484T117 598T230 676T379 705Q436 705 481 694T563 663T627 617T673 559L541 464Q530 479 516
494T482 522T437 541T378 549Q337 549 303 534T245 493T208 429T194 347Q194 300 208 262T249 198T310 157T387 142Q445 142 482 160T535 195V245H432V382H699V0ZM346 -190Q320 -183 303 -163T286 -110Q286 -78 309 -53T375 -27Q417 -27 439 -53T461 -112Q461 -135
455 -152T441 -183L405 -256H316L346 -190Z" />
<glyph unicode="&#x123;" glyph-name="gcommaaccent" horiz-adv-x="611" d="M430 535H581V89Q581 14 560 -38T500 -122T408 -169T290 -184Q230 -184 181 -171T98 -140L146 -15Q169 -26 207 -36T291 -46Q346 -46 383 -27T421 32Q404 17 373 4T294 -9Q231 -9 180
11T93 67T36 154T16 266Q16 323 35 374T91 462T177 522T288 544Q379 544 430 501V535ZM176 267Q176 239 185 215T210 172T250 144T301 134Q331 134 354 144T393 173T417 215T426 267Q426 295 417 319T392 362T353 390T301 401Q272 401 249 391T209 362T185 320T176
267ZM319 724Q345 717 362 698T379 646Q379 630 373 615T356 587T328 568T290 561Q269 561 253 568T226 587T210 614T204 646Q204 669 210 686T224 717L260 790H349L319 724Z" />
<glyph unicode="&#x124;" glyph-name="Hcircumflex" horiz-adv-x="654" d="M409 853L508 721H364L325 765L286 721H142L241 853H409ZM614 0H447V273H207V0H40V692H207V432H447V692H614V0Z" />
<glyph unicode="&#x125;" glyph-name="hcircumflex" horiz-adv-x="498" d="M327 895L426 763H282L243 807L204 763H60L159 895H327ZM307 333Q307 362 293 380T250 398Q222 398 208 381T193 334V0H32V731H193V501Q197 505 205 512T227 525T258 536T301 541Q348
541 380 526T431 485T459 425T468 352V0H307V333Z" />
<glyph unicode="&#x126;" glyph-name="Hbar" horiz-adv-x="678" d="M626 629H676V510H626V0H459V273H219V0H52V510H2V629H52V692H219V629H459V692H626V629ZM459 432V510H219V432H459Z" />
<glyph unicode="&#x127;" glyph-name="hbar" horiz-adv-x="510" d="M1 681H44V731H205V681H322V571H205V501Q209 505 217 512T239 525T270 536T313 541Q360 541 392 526T443 485T471 425T480 352V0H319V333Q319 362 305 380T262 398Q234 398 220 381T205 334V0H44V571H1V681Z"
/>
<glyph unicode="&#x128;" glyph-name="Itilde" horiz-adv-x="247" d="M184 723Q166 723 152 727T127 737T105 746T86 751Q61 751 61 721H-52Q-54 752 -47 779T-24 825T14 855T65 866Q85 866 99 862T123 852T143 843T162 838Q185 838 185 868H298Q302 801 271 762T184
723ZM207 0H40V692H207V0Z" />
<glyph unicode="&#x129;" glyph-name="itilde" horiz-adv-x="225" d="M193 0H32V535H193V0ZM429 566Q411 566 398 570T373 580T353 589T334 594Q311 594 311 564H199Q197 595 204 622T227 668T264 698T314 709Q334 709 347 705T371 695T389 686T408 681Q429 681
429 711H541Q545 644 515 605T429 566Z" />
<glyph unicode="&#x12a;" glyph-name="Imacron" horiz-adv-x="247" d="M-8 838H258V722H-8V838ZM207 0H40V692H207V0Z" />
<glyph unicode="&#x12b;" glyph-name="imacron" horiz-adv-x="225" d="M-12 692H238V576H-12V692ZM193 0H32V535H193V0Z" />
<glyph unicode="&#x12c;" glyph-name="Ibreve" horiz-adv-x="247" d="M124 718Q84 718 55 729T6 760T-22 805T-31 858H89Q89 843 98 834T125 824Q142 824 151 833T161 858H280Q280 831 271 806T243 761T194 730T124 718ZM207 0H40V692H207V0Z" />
<glyph unicode="&#x12d;" glyph-name="ibreve" horiz-adv-x="225" d="M193 0H32V535H193V0ZM369 560Q329 560 300 573T253 607T226 655T217 710H334Q334 689 343 677T370 665Q387 665 396 677T406 710H522Q522 682 514 655T486 607T438 573T369 560Z" />
<glyph unicode="&#x12e;" glyph-name="Iogonek" horiz-adv-x="247" d="M207 0Q184 -2 176 -12T167 -34Q167 -49 178 -57T207 -65V-175Q157 -178 121 -172T62 -152T28 -119T17 -77Q17 -53 30 -33T68 0H40V692H207V0Z" />
<glyph unicode="&#x12f;" glyph-name="iogonek" horiz-adv-x="225" d="M193 0Q171 -1 162 -12T153 -34Q153 -49 164 -57T193 -65V-175Q143 -178 107 -172T48 -153T14 -120T3 -76Q3 -51 11 -33T32 0V535H193V0ZM110 556Q91 556 75 563T46 582T26 611T19 647Q19
666 26 683T45 712T74 732T110 739Q129 739 146 732T175 713T195 683T202 647Q202 628 195 612T176 583T146 563T110 556Z" />
<glyph unicode="&#x130;" glyph-name="Idotaccent" horiz-adv-x="247" d="M124 722Q106 722 91 728T63 747T44 774T37 808Q37 843 61 868T123 893Q161 893 186 869T212 808Q212 772 187 747T124 722ZM207 0H40V692H207V0Z" />
<glyph unicode="&#x131;" glyph-name="dotlessi" horiz-adv-x="225" d="M193 0H32V535H193V0Z" />
<glyph unicode="&#x132;" glyph-name="IJ" horiz-adv-x="552" d="M207 0H40V692H207V0ZM513 182Q513 141 505 108T477 50T422 13T331 -1Q323 -1 303 -1T265 0V154H304Q331 155 338 170T346 202V692H513V182Z" />
<glyph unicode="&#x133;" glyph-name="ij" horiz-adv-x="451" d="M193 0H32V535H193V0ZM110 556Q91 556 75 563T46 582T26 611T19 647Q19 666 26 683T45 712T74 732T110 739Q129 739 146 732T175 713T195 683T202 647Q202 628 195 612T176 583T146 563T110 556ZM339
556Q320 556 304 563T275 582T255 611T248 647Q248 666 255 683T274 712T303 732T339 739Q358 739 375 732T404 713T424 683T431 647Q431 628 424 612T405 583T375 563T339 556ZM421 8Q421 -33 412 -66T382 -124T327 -162T241 -176Q233 -176 222 -176T193 -175V-39H219Q247
-38 253 -24T260 9V535H421V8Z" />
<glyph unicode="&#x134;" glyph-name="Jcircumflex" horiz-adv-x="305" d="M258 853L357 721H213L174 765L135 721H-9L90 853H258ZM257 182Q257 141 249 108T221 50T166 13T75 -1Q67 -1 47 -1T9 0V154H48Q75 155 82 170T90 202V692H257V182Z" />
<glyph unicode="&#x135;" glyph-name="jcircumflex" horiz-adv-x="226" d="M194 8Q194 -33 185 -66T155 -124T100 -162T14 -176Q6 -176 -5 -176T-34 -175V-39H-8Q20 -38 26 -24T33 9V535H194V8ZM448 710L541 567H403L368 617L333 567H195L288 710H448Z" />
<glyph unicode="&#x136;" glyph-name="Kcommaaccent" horiz-adv-x="581" d="M207 421L396 692H589L346 361L588 0H393L207 283V0H40V692H207V421ZM257 -190Q231 -183 214 -163T197 -110Q197 -78 220 -53T286 -27Q328 -27 350 -53T372 -112Q372 -135 366 -152T352
-183L316 -256H227L257 -190Z" />
<glyph unicode="&#x137;" glyph-name="kcommaaccent" horiz-adv-x="519" d="M338 290L519 0H325L193 225V0H32V731H193V336L327 535H512L338 290ZM237 -190Q211 -183 194 -163T177 -110Q177 -78 200 -53T266 -27Q308 -27 330 -53T352 -112Q352 -135 346 -152T332
-183L296 -256H207L237 -190Z" />
<glyph unicode="&#x139;" glyph-name="Lacute" horiz-adv-x="384" d="M278 853L200 721H47L119 853H278ZM40 0V692H207V156H365V0H40Z" />
<glyph unicode="&#x13a;" glyph-name="lacute" horiz-adv-x="225" d="M267 893L189 761H36L108 893H267ZM193 0H32V731H193V0Z" />
<glyph unicode="&#x13b;" glyph-name="Lcommaaccent" horiz-adv-x="384" d="M40 0V692H207V156H365V0H40ZM424 -190Q398 -183 381 -163T364 -110Q364 -78 387 -53T453 -27Q495 -27 517 -53T539 -112Q539 -135 533 -152T519 -183L483 -256H394L424 -190Z" />
<glyph unicode="&#x13c;" glyph-name="lcommaaccent" horiz-adv-x="225" d="M193 0H32V731H193V0ZM338 -190Q312 -183 295 -163T278 -110Q278 -78 301 -53T367 -27Q409 -27 431 -53T453 -112Q453 -135 447 -152T433 -183L397 -256H308L338 -190Z" />
<glyph unicode="&#x13d;" glyph-name="Lcaron" horiz-adv-x="384" d="M40 0V692H207V156H365V0H40ZM630 949L617 786H492L502 949H630Z" />
<glyph unicode="&#x13e;" glyph-name="lcaron" horiz-adv-x="225" d="M193 0H32V731H193V0ZM616 731L603 568H478L488 731H616Z" />
<glyph unicode="&#x13f;" glyph-name="Ldot" horiz-adv-x="454" d="M350 253Q307 253 279 282T250 354Q250 397 278 425T350 454Q394 454 422 426T450 354Q450 311 422 282T350 253ZM40 0V692H207V156H365V0H40Z" />
<glyph unicode="&#x140;" glyph-name="ldot" horiz-adv-x="410" d="M220 354Q220 396 247 424T317 452Q359 452 387 424T415 354Q415 312 387 285T317 257Q275 257 248 284T220 354ZM193 0H32V731H193V0Z" />
<glyph unicode="&#x141;" glyph-name="Lslash" horiz-adv-x="384" d="M52 0V191L6 168V314L52 339V692H219V430L314 482V325L219 276V156H377V0H52Z" />
<glyph unicode="&#x142;" glyph-name="lslash" horiz-adv-x="265" d="M213 508L259 535V379L213 354V0H52V265L6 240V390L52 416V731H213V508Z" />
<glyph unicode="&#x143;" glyph-name="Nacute" horiz-adv-x="673" d="M480 853L402 721H249L321 853H480ZM201 409V0H40V692H212L472 274V692H633V0H468L201 409Z" />
<glyph unicode="&#x144;" glyph-name="nacute" horiz-adv-x="498" d="M307 333Q307 362 293 380T250 398Q222 398 208 381T193 334V0H32V535H193V501Q197 505 205 512T227 525T258 536T301 541Q348 541 380 526T431 485T459 425T468 352V0H307V333ZM408 708L326
568H176L251 708H408Z" />
<glyph unicode="&#x145;" glyph-name="Ncommaaccent" horiz-adv-x="673" d="M201 409V0H40V692H212L472 274V692H633V0H468L201 409ZM315 -190Q289 -183 272 -163T255 -110Q255 -78 278 -53T344 -27Q386 -27 408 -53T430 -112Q430 -135 424 -152T410 -183L374
-256H285L315 -190Z" />
<glyph unicode="&#x146;" glyph-name="ncommaaccent" horiz-adv-x="498" d="M307 333Q307 362 293 380T250 398Q222 398 208 381T193 334V0H32V535H193V501Q197 505 205 512T227 525T258 536T301 541Q348 541 380 526T431 485T459 425T468 352V0H307V333ZM216
-190Q190 -183 173 -163T156 -110Q156 -78 179 -53T245 -27Q287 -27 309 -53T331 -112Q331 -135 325 -152T311 -183L275 -256H186L216 -190Z" />
<glyph unicode="&#x147;" glyph-name="Ncaron" horiz-adv-x="673" d="M261 721L162 853H306L345 809L384 853H528L429 721H261ZM201 409V0H40V692H212L472 274V692H633V0H468L201 409Z" />
<glyph unicode="&#x148;" glyph-name="ncaron" horiz-adv-x="498" d="M307 333Q307 362 293 380T250 398Q222 398 208 381T193 334V0H32V535H193V501Q197 505 205 512T227 525T258 536T301 541Q348 541 380 526T431 485T459 425T468 352V0H307V333ZM169 567L76
710H214L249 660L284 710H422L329 567H169Z" />
<glyph unicode="&#x149;" glyph-name="napostrophe" horiz-adv-x="675" d="M484 333Q484 362 470 380T427 398Q399 398 385 381T370 334V0H209V535H370V501Q374 505 382 512T404 525T435 536T478 541Q525 541 557 526T608 485T636 425T645 352V0H484V333ZM319
517Q294 526 275 547T256 604Q256 644 282 672T353 700Q397 700 423 673T449 604Q449 583 444 564T427 522L372 408H264L319 517Z" />
<glyph unicode="&#x14a;" glyph-name="Eng" horiz-adv-x="673" d="M201 409V0H40V692H212L472 278V692H633V0Q633 -41 626 -74T598 -131T544 -168T454 -181Q446 -181 430 -181T401 -180V-26H430Q450 -26 458 -17T468 4L201 409Z" />
<glyph unicode="&#x14b;" glyph-name="eng" horiz-adv-x="498" d="M468 8Q468 -33 459 -66T429 -124T374 -162T288 -176Q280 -176 268 -176T240 -175V-39H266Q294 -38 300 -24T307 8V333Q307 362 293 380T250 398Q222 398 208 381T193 334V0H32V535H193V501Q197
505 205 512T227 525T258 536T301 541Q348 541 380 526T431 485T459 425T468 352V8Z" />
<glyph unicode="&#x14c;" glyph-name="Omacron" horiz-adv-x="766" d="M248 838H514V722H248V838ZM20 345Q20 420 46 486T119 600T233 677T379 705Q464 705 532 678T647 602T720 489T746 348Q746 272 721 206T648 92T534 15T384 -13Q299 -13 232 14T117 90T45
203T20 345ZM195 346Q195 303 208 266T245 202T305 159T383 143Q429 143 464 159T523 202T559 267T571 346Q571 388 558 425T521 489T462 533T382 549Q336 549 301 533T243 490T207 425T195 346Z" />
<glyph unicode="&#x14d;" glyph-name="omacron" horiz-adv-x="595" d="M176 267Q176 239 185 215T210 174T248 146T298 136Q326 136 348 146T387 173T411 215T419 267Q419 295 410 319T385 361T347 389T297 399Q268 399 246 389T208 361T184 319T176 267ZM16 266Q16
324 36 375T94 463T183 522T296 544Q362 544 414 523T503 465T559 378T579 269Q579 210 559 160T502 72T413 13T297 -9Q232 -9 181 12T92 70T36 157T16 266ZM172 692H422V576H172V692Z" />
<glyph unicode="&#x14e;" glyph-name="Obreve" horiz-adv-x="766" d="M381 718Q341 718 312 729T263 760T235 805T226 858H346Q346 843 355 834T382 824Q399 824 408 833T418 858H537Q537 831 528 806T500 761T451 730T381 718ZM20 345Q20 420 46 486T119 600T233
677T379 705Q464 705 532 678T647 602T720 489T746 348Q746 272 721 206T648 92T534 15T384 -13Q299 -13 232 14T117 90T45 203T20 345ZM195 346Q195 303 208 266T245 202T305 159T383 143Q429 143 464 159T523 202T559 267T571 346Q571 388 558 425T521 489T462
533T382 549Q336 549 301 533T243 490T207 425T195 346Z" />
<glyph unicode="&#x14f;" glyph-name="obreve" horiz-adv-x="595" d="M176 267Q176 239 185 215T210 174T248 146T298 136Q326 136 348 146T387 173T411 215T419 267Q419 295 410 319T385 361T347 389T297 399Q268 399 246 389T208 361T184 319T176 267ZM16 266Q16
324 36 375T94 463T183 522T296 544Q362 544 414 523T503 465T559 378T579 269Q579 210 559 160T502 72T413 13T297 -9Q232 -9 181 12T92 70T36 157T16 266ZM297 560Q257 560 228 573T181 607T154 655T145 710H262Q262 689 271 677T298 665Q315 665 324 677T334
710H450Q450 682 442 655T414 607T366 573T297 560Z" />
<glyph unicode="&#x150;" glyph-name="Ohungarumlaut" horiz-adv-x="766" d="M429 852L368 721H222L276 852H429ZM616 852L550 721H406L465 852H616ZM20 345Q20 420 46 486T119 600T233 677T379 705Q464 705 532 678T647 602T720 489T746 348Q746 272 721 206T648
92T534 15T384 -13Q299 -13 232 14T117 90T45 203T20 345ZM195 346Q195 303 208 266T245 202T305 159T383 143Q429 143 464 159T523 202T559 267T571 346Q571 388 558 425T521 489T462 533T382 549Q336 549 301 533T243 490T207 425T195 346Z" />
<glyph unicode="&#x151;" glyph-name="ohungarumlaut" horiz-adv-x="595" d="M176 267Q176 239 185 215T210 174T248 146T298 136Q326 136 348 146T387 173T411 215T419 267Q419 295 410 319T385 361T347 389T297 399Q268 399 246 389T208 361T184 319T176 267ZM16
266Q16 324 36 375T94 463T183 522T296 544Q362 544 414 523T503 465T559 378T579 269Q579 210 559 160T502 72T413 13T297 -9Q232 -9 181 12T92 70T36 157T16 266ZM344 708L280 568H135L192 708H344ZM530 708L461 568H318L380 708H530Z" />
<glyph unicode="&#x152;" glyph-name="OE" horiz-adv-x="741" d="M380 536Q295 537 245 491T194 347Q194 299 207 263T245 203T304 168T380 156V536ZM708 692V536H547V429H703V275H547V156H711V0H389Q302 0 234 24T118 94T45 203T20 348Q20 427 45 490T119 599T235
668T389 692H708Z" />
<glyph unicode="&#x153;" glyph-name="oe" horiz-adv-x="956" d="M176 267Q176 239 185 215T210 174T248 146T298 136Q326 136 348 146T387 173T411 215T419 267Q419 295 410 319T385 361T347 389T297 399Q268 399 246 389T208 361T184 319T176 267ZM681 410Q639
410 617 385T590 328H776Q773 361 749 385T681 410ZM693 -9Q631 -9 581 11T494 69Q457 32 408 12T297 -9Q232 -9 181 12T92 70T36 157T16 266Q16 324 36 375T94 463T183 522T296 544Q359 544 410 523T497 464Q532 501 578 522T681 544Q742 544 790 525T873 471T925
386T943 277Q943 266 943 248T941 215H586Q589 183 616 158T694 133Q736 133 762 153T802 196L925 124Q914 101 895 77T848 34T781 3T693 -9Z" />
<glyph unicode="&#x154;" glyph-name="Racute" horiz-adv-x="555" d="M403 853L325 721H172L244 853H403ZM496 486Q496 428 473 385T408 316L566 0H387L251 284H206V0H40V692H278Q387 692 441 639T496 486ZM206 548V420H264Q293 420 308 438T324 485Q324 514 308
531T264 548H206Z" />
<glyph unicode="&#x155;" glyph-name="racute" horiz-adv-x="301" d="M287 369H247Q215 369 204 357T193 319V0H32V535H193V498Q208 518 229 528T287 538V369ZM568 708L486 568H336L411 708H568Z" />
<glyph unicode="&#x156;" glyph-name="Rcommaaccent" horiz-adv-x="555" d="M496 486Q496 428 473 385T408 316L566 0H387L251 284H206V0H40V692H278Q387 692 441 639T496 486ZM206 548V420H264Q293 420 308 438T324 485Q324 514 308 531T264 548H206ZM243 -190Q217
-183 200 -163T183 -110Q183 -78 206 -53T272 -27Q314 -27 336 -53T358 -112Q358 -135 352 -152T338 -183L302 -256H213L243 -190Z" />
<glyph unicode="&#x157;" glyph-name="rcommaaccent" horiz-adv-x="301" d="M287 369H247Q215 369 204 357T193 319V0H32V535H193V498Q208 518 229 528T287 538V369ZM342 -190Q316 -183 299 -163T282 -110Q282 -78 305 -53T371 -27Q413 -27 435 -53T457 -112Q457
-135 451 -152T437 -183L401 -256H312L342 -190Z" />
<glyph unicode="&#x158;" glyph-name="Rcaron" horiz-adv-x="555" d="M181 721L82 853H226L265 809L304 853H448L349 721H181ZM496 486Q496 428 473 385T408 316L566 0H387L251 284H206V0H40V692H278Q387 692 441 639T496 486ZM206 548V420H264Q293 420 308 438T324
485Q324 514 308 531T264 548H206Z" />
<glyph unicode="&#x159;" glyph-name="rcaron" horiz-adv-x="301" d="M287 369H247Q215 369 204 357T193 319V0H32V535H193V498Q208 518 229 528T287 538V369ZM333 567L240 710H378L413 660L448 710H586L493 567H333Z" />
<glyph unicode="&#x15a;" glyph-name="Sacute" horiz-adv-x="508" d="M406 853L328 721H175L247 853H406ZM194 510Q194 488 208 473T257 443L344 409Q412 381 449 334T487 209Q487 156 470 115T421 46T345 2T249 -13Q175 -13 129 8T59 64T27 138T21 217H179Q178
200 181 185T192 157T214 138T249 130Q278 130 296 145T315 191Q315 220 296 236T242 266Q216 277 190 287T134 312Q81 339 54 388T27 500Q27 545 43 583T88 648T158 690T250 705Q311 705 353 689T421 643T457 575T465 489H311Q312 521 296 541T251 562Q222 562
208 547T194 510Z" />
<glyph unicode="&#x15b;" glyph-name="sacute" horiz-adv-x="437" d="M432 387Q432 359 475 350Q492 346 509 343T540 336Q575 326 600 313T642 280T667 233T675 170Q675 123 658 90T613 35T548 3T471 -7Q412 -7 373 8T310 49T278 108T271 176H424Q423 156 432
138T473 120Q493 120 506 128T519 153Q519 170 510 178T475 192Q449 197 432 201T394 213Q335 233 308 274T280 375Q280 414 295 445T336 497T397 530T474 542Q517 542 552 532T612 501T652 447T666 368H519Q518 392 507 406T471 420Q453 420 443 411T432 387ZM636
708L554 568H404L479 708H636Z" />
<glyph unicode="&#x15c;" glyph-name="Scircumflex" horiz-adv-x="508" d="M335 853L434 721H290L251 765L212 721H68L167 853H335ZM194 510Q194 488 208 473T257 443L344 409Q412 381 449 334T487 209Q487 156 470 115T421 46T345 2T249 -13Q175 -13 129 8T59
64T27 138T21 217H179Q178 200 181 185T192 157T214 138T249 130Q278 130 296 145T315 191Q315 220 296 236T242 266Q216 277 190 287T134 312Q81 339 54 388T27 500Q27 545 43 583T88 648T158 690T250 705Q311 705 353 689T421 643T457 575T465 489H311Q312 521
296 541T251 562Q222 562 208 547T194 510Z" />
<glyph unicode="&#x15d;" glyph-name="scircumflex" horiz-adv-x="437" d="M432 387Q432 359 475 350Q492 346 509 343T540 336Q575 326 600 313T642 280T667 233T675 170Q675 123 658 90T613 35T548 3T471 -7Q412 -7 373 8T310 49T278 108T271 176H424Q423 156
432 138T473 120Q493 120 506 128T519 153Q519 170 510 178T475 192Q449 197 432 201T394 213Q335 233 308 274T280 375Q280 414 295 445T336 497T397 530T474 542Q517 542 552 532T612 501T652 447T666 368H519Q518 392 507 406T471 420Q453 420 443 411T432 387ZM297
710L390 567H252L217 617L182 567H44L137 710H297Z" />
<glyph unicode="&#x15e;" glyph-name="Scedilla" horiz-adv-x="508" d="M170 -264V-177H192Q209 -176 218 -169T228 -144Q228 -128 219 -120T192 -112H170V-5Q122 7 92 31T46 85T24 150T21 217H179Q178 200 181 185T192 157T214 138T249 130Q278 130 296 145T315
191Q315 220 296 236T242 266Q216 277 190 287T134 312Q81 339 54 388T27 500Q27 545 43 583T88 648T158 690T250 705Q311 705 353 689T421 643T457 575T465 489H311Q312 521 296 541T251 562Q222 562 208 547T194 510Q194 488 208 473T257 443L344 409Q412 381
449 334T487 209Q487 158 470 118T423 49T350 4T258 -13V-34Q300 -48 315 -78T331 -144Q331 -201 295 -232T190 -264H170Z" />
<glyph unicode="&#x15f;" glyph-name="scedilla" horiz-adv-x="437" d="M149 -264V-177H171Q188 -176 197 -169T207 -144Q207 -128 198 -120T171 -112H149V-1Q110 7 83 24T41 66T19 118T14 176H167Q166 156 175 138T216 120Q236 120 249 128T262 153Q262 170 253
178T218 192Q192 197 175 201T137 213Q78 233 51 274T23 375Q23 414 38 445T79 497T140 530T217 542Q260 542 295 532T355 501T395 447T409 368H262Q261 392 250 406T214 420Q196 420 186 411T175 387Q175 359 218 350Q235 346 252 343T283 336Q318 326 343 313T385
280T410 233T418 170Q418 126 404 94T364 41T306 8T237 -6V-34Q279 -48 294 -78T310 -144Q310 -201 274 -232T169 -264H149Z" />
<glyph unicode="&#x160;" glyph-name="Scaron" horiz-adv-x="508" d="M169 721L70 853H214L253 809L292 853H436L337 721H169ZM194 510Q194 488 208 473T257 443L344 409Q412 381 449 334T487 209Q487 156 470 115T421 46T345 2T249 -13Q175 -13 129 8T59 64T27
138T21 217H179Q178 200 181 185T192 157T214 138T249 130Q278 130 296 145T315 191Q315 220 296 236T242 266Q216 277 190 287T134 312Q81 339 54 388T27 500Q27 545 43 583T88 648T158 690T250 705Q311 705 353 689T421 643T457 575T465 489H311Q312 521 296
541T251 562Q222 562 208 547T194 510Z" />
<glyph unicode="&#x161;" glyph-name="scaron" horiz-adv-x="437" d="M432 387Q432 359 475 350Q492 346 509 343T540 336Q575 326 600 313T642 280T667 233T675 170Q675 123 658 90T613 35T548 3T471 -7Q412 -7 373 8T310 49T278 108T271 176H424Q423 156 432
138T473 120Q493 120 506 128T519 153Q519 170 510 178T475 192Q449 197 432 201T394 213Q335 233 308 274T280 375Q280 414 295 445T336 497T397 530T474 542Q517 542 552 532T612 501T652 447T666 368H519Q518 392 507 406T471 420Q453 420 443 411T432 387ZM141
567L48 710H186L221 660L256 710H394L301 567H141Z" />
<glyph unicode="&#x162;" glyph-name="Tcommaaccent" horiz-adv-x="430" d="M299 536V0H132V536H16V692H414V536H299ZM186 -190Q160 -183 143 -163T126 -110Q126 -78 149 -53T215 -27Q257 -27 279 -53T301 -112Q301 -135 295 -152T281 -183L245 -256H156L186 -190Z" />
<glyph unicode="&#x163;" glyph-name="tcommaaccent" horiz-adv-x="315" d="M221 535H292V400H221V187Q221 160 232 150T265 139H292V4Q283 1 272 -1Q262 -3 247 -4T211 -6Q134 -6 97 32T60 139V400H13V535H60V620H221V535ZM398 -190Q372 -183 355 -163T338 -110Q338
-78 361 -53T427 -27Q469 -27 491 -53T513 -112Q513 -135 507 -152T493 -183L457 -256H368L398 -190Z" />
<glyph unicode="&#x164;" glyph-name="Tcaron" horiz-adv-x="430" d="M131 721L32 853H176L215 809L254 853H398L299 721H131ZM299 536V0H132V536H16V692H414V536H299Z" />
<glyph unicode="&#x165;" glyph-name="tcaron" horiz-adv-x="315" d="M221 535H292V400H221V187Q221 160 232 150T265 139H292V4Q283 1 272 -1Q262 -3 247 -4T211 -6Q134 -6 97 32T60 139V400H13V535H60V620H221V535ZM390 731L377 568H252L262 731H390Z" />
<glyph unicode="&#x166;" glyph-name="Tbar" horiz-adv-x="430" d="M299 536V440H379V321H299V0H132V321H52V440H132V536H16V692H414V536H299Z" />
<glyph unicode="&#x167;" glyph-name="tbar" horiz-adv-x="315" d="M221 535H292V400H221V339H292V223H221V187Q221 160 232 150T265 139H292V4Q283 1 272 -1Q262 -3 247 -4T211 -6Q134 -6 97 32T60 139V223H17V339H60V400H13V535H60V620H221V535Z" />
<glyph unicode="&#x168;" glyph-name="Utilde" horiz-adv-x="644" d="M321 -13Q248 -13 195 8T106 67T54 158T37 276V692H204V276Q204 217 232 181T323 144Q383 144 411 181T440 277V692H607V277Q607 214 589 161T535 70T446 9T321 -13ZM380 723Q362 723 349 727T324
737T304 746T285 751Q262 751 262 721H150Q148 752 155 779T178 825T215 855T265 866Q285 866 298 862T322 852T340 843T359 838Q380 838 380 868H492Q496 801 466 762T380 723Z" />
<glyph unicode="&#x169;" glyph-name="utilde" horiz-adv-x="495" d="M191 203Q191 174 203 156T245 138Q273 138 287 156T302 203V535H463V0H303V34Q294 24 268 9T197 -6Q152 -6 121 8T69 47T39 107T30 184V535H191V203ZM309 566Q291 566 278 570T253 580T233
589T214 594Q191 594 191 564H79Q77 595 84 622T107 668T144 698T194 709Q214 709 227 705T251 695T269 686T288 681Q309 681 309 711H421Q425 644 395 605T309 566Z" />
<glyph unicode="&#x16a;" glyph-name="Umacron" horiz-adv-x="644" d="M321 -13Q248 -13 195 8T106 67T54 158T37 276V692H204V276Q204 217 232 181T323 144Q383 144 411 181T440 277V692H607V277Q607 214 589 161T535 70T446 9T321 -13ZM198 849H448V733H198V849Z" />
<glyph unicode="&#x16b;" glyph-name="umacron" horiz-adv-x="495" d="M191 203Q191 174 203 156T245 138Q273 138 287 156T302 203V535H463V0H303V34Q294 24 268 9T197 -6Q152 -6 121 8T69 47T39 107T30 184V535H191V203ZM122 692H372V576H122V692Z" />
<glyph unicode="&#x16c;" glyph-name="Ubreve" horiz-adv-x="644" d="M321 718Q281 718 252 729T203 760T175 805T166 858H286Q286 843 295 834T322 824Q339 824 348 833T358 858H477Q477 831 468 806T440 761T391 730T321 718ZM321 -13Q248 -13 195 8T106 67T54
158T37 276V692H204V276Q204 217 232 181T323 144Q383 144 411 181T440 277V692H607V277Q607 214 589 161T535 70T446 9T321 -13Z" />
<glyph unicode="&#x16d;" glyph-name="ubreve" horiz-adv-x="495" d="M191 203Q191 174 203 156T245 138Q273 138 287 156T302 203V535H463V0H303V34Q294 24 268 9T197 -6Q152 -6 121 8T69 47T39 107T30 184V535H191V203ZM246 560Q206 560 177 573T130 607T103
655T94 710H211Q211 689 220 677T247 665Q264 665 273 677T283 710H399Q399 682 391 655T363 607T315 573T246 560Z" />
<glyph unicode="&#x16e;" glyph-name="Uring" horiz-adv-x="644" d="M207 820Q207 868 239 899T320 931Q374 931 405 900T436 822Q436 774 405 743T321 711Q270 711 239 742T207 820ZM282 822Q282 802 293 791T322 780Q339 780 350 791T361 822Q361 839 351 850T322
862Q303 862 293 851T282 822ZM321 -13Q248 -13 195 8T106 67T54 158T37 276V692H204V276Q204 217 232 181T323 144Q383 144 411 181T440 277V692H607V277Q607 214 589 161T535 70T446 9T321 -13Z" />
<glyph unicode="&#x16f;" glyph-name="uring" horiz-adv-x="495" d="M191 203Q191 174 203 156T245 138Q273 138 287 156T302 203V535H463V0H303V34Q294 24 268 9T197 -6Q152 -6 121 8T69 47T39 107T30 184V535H191V203ZM133 666Q133 690 141 710T165 744T200
767T245 776Q298 776 329 745T360 668Q360 620 329 589T246 558Q196 558 165 589T133 666ZM205 668Q205 648 217 636T247 624Q264 624 276 636T288 668Q288 686 277 698T247 710Q228 710 217 698T205 668Z" />
<glyph unicode="&#x170;" glyph-name="Uhungarumlaut" horiz-adv-x="644" d="M355 852L294 721H148L202 852H355ZM542 852L476 721H332L391 852H542ZM321 -13Q248 -13 195 8T106 67T54 158T37 276V692H204V276Q204 217 232 181T323 144Q383 144 411 181T440 277V692H607V277Q607
214 589 161T535 70T446 9T321 -13Z" />
<glyph unicode="&#x171;" glyph-name="uhungarumlaut" horiz-adv-x="495" d="M191 203Q191 174 203 156T245 138Q273 138 287 156T302 203V535H463V0H303V34Q294 24 268 9T197 -6Q152 -6 121 8T69 47T39 107T30 184V535H191V203ZM292 708L228 568H83L140 708H292ZM478
708L409 568H266L328 708H478Z" />
<glyph unicode="&#x172;" glyph-name="Uogonek" horiz-adv-x="644" d="M435 5Q396 -9 396 -34Q396 -49 407 -57T436 -65V-175Q386 -178 350 -172T291 -153T257 -120T246 -80Q246 -58 255 -41T282 -11Q218 -6 172 17T95 78T51 166T37 276V692H204V276Q204 217 232
181T322 144Q382 144 411 180T440 276V692H607V276Q607 178 565 108T435 5Z" />
<glyph unicode="&#x173;" glyph-name="uogonek" horiz-adv-x="495" d="M191 203Q191 174 203 156T245 138Q273 138 287 156T302 203V535H463V0Q440 -2 432 -12T423 -34Q423 -49 434 -57T463 -65V-175Q413 -178 377 -172T318 -153T284 -120T273 -76Q273 -51 282
-33T303 0V34Q294 24 268 9T197 -6Q152 -6 121 8T69 47T39 107T30 184V535H191V203Z" />
<glyph unicode="&#x174;" glyph-name="Wcircumflex" horiz-adv-x="993" d="M581 853L680 721H536L497 765L458 721H314L413 853H581ZM497 435L377 0H186L-5 692H178L291 221L412 692H591L712 221L825 692H998L812 0H616L497 435Z" />
<glyph unicode="&#x175;" glyph-name="wcircumflex" horiz-adv-x="820" d="M579 207L652 535H819L677 0H499L414 302L332 0H151L1 535H183L255 207L332 535H503L579 207ZM495 710L588 567H450L415 617L380 567H242L335 710H495Z" />
<glyph unicode="&#x176;" glyph-name="Ycircumflex" horiz-adv-x="530" d="M353 853L452 721H308L269 765L230 721H86L185 853H353ZM-12 692H173L269 503L366 692H542L346 343V0H180V340L-12 692Z" />
<glyph unicode="&#x177;" glyph-name="ycircumflex" horiz-adv-x="539" d="M122 -175L195 29L-1 535H176L277 248L377 535H541L277 -175H122ZM357 710L450 567H312L277 617L242 567H104L197 710H357Z" />
<glyph unicode="&#x178;" glyph-name="Ydieresis" horiz-adv-x="530" d="M165 712Q130 712 106 736T82 795Q82 830 106 853T165 877Q203 877 227 854T251 795Q251 760 226 736T165 712ZM370 712Q335 712 311 736T287 795Q287 830 311 853T370 877Q408 877 432
854T456 795Q456 760 431 736T370 712ZM-12 692H173L269 503L366 692H542L346 343V0H180V340L-12 692Z" />
<glyph unicode="&#x179;" glyph-name="Zacute" horiz-adv-x="578" d="M430 853L352 721H199L271 853H430ZM25 0V109L314 539H27V692H551V584L257 152H553V0H25Z" />
<glyph unicode="&#x17a;" glyph-name="zacute" horiz-adv-x="430" d="M212 133H410V0H20V114L211 402H22V535H410V421L212 133ZM619 708L537 568H387L462 708H619Z" />
<glyph unicode="&#x17b;" glyph-name="Zdotaccent" horiz-adv-x="578" d="M289 722Q271 722 256 728T228 747T209 774T202 808Q202 843 226 868T288 893Q326 893 351 869T377 808Q377 772 352 747T289 722ZM25 0V109L314 539H27V692H551V584L257 152H553V0H25Z" />
<glyph unicode="&#x17c;" glyph-name="zdotaccent" horiz-adv-x="430" d="M212 133H410V0H20V114L211 402H22V535H410V421L212 133ZM216 560Q180 560 155 584T129 646Q129 682 153 706T215 731Q253 731 278 707T304 646Q304 609 279 585T216 560Z" />
<glyph unicode="&#x17d;" glyph-name="Zcaron" horiz-adv-x="578" d="M200 721L101 853H245L284 809L323 853H467L368 721H200ZM25 0V109L314 539H27V692H551V584L257 152H553V0H25Z" />
<glyph unicode="&#x17e;" glyph-name="zcaron" horiz-adv-x="430" d="M212 133H410V0H20V114L211 402H22V535H410V421L212 133ZM134 567L41 710H179L214 660L249 710H387L294 567H134Z" />
<glyph unicode="&#x192;" glyph-name="florin" horiz-adv-x="360" d="M257 444H316V309H233L148 -175H-10L75 309H29V444H99L113 523Q129 614 171 655T298 696Q310 696 322 695T342 692V561H322Q293 561 284 549T270 515L257 444Z" />
<glyph unicode="&#x1fa;" glyph-name="Aringacute" horiz-adv-x="658" d="M480 1078L402 946H249L321 1078H480ZM207 820Q207 868 239 899T320 931Q374 931 405 900T436 822Q436 774 405 743T321 711Q270 711 239 742T207 820ZM282 822Q282 802 293 791T322 780Q339
780 350 791T361 822Q361 839 351 850T322 862Q303 862 293 851T282 822ZM431 165H213L156 0H-8L234 692H410L666 0H489L431 165ZM261 305H383L322 480L261 305Z" />
<glyph unicode="&#x1fb;" glyph-name="aringacute" horiz-adv-x="476" d="M403 925L325 793H172L244 925H403ZM17 177Q17 217 29 249T66 305T123 340T199 353Q232 353 254 347T287 334V356Q287 379 276 396T235 414Q206 414 196 399T186 368H37Q39 449 87 495T234
541Q297 541 338 525T403 482T436 416T446 332V0H314V29Q295 12 269 3T204 -6Q165 -6 131 6T72 42T32 100T17 177ZM168 181Q168 155 185 138T229 121Q255 121 272 138T290 181Q290 208 272 224T228 240Q202 240 185 224T168 181ZM134 666Q134 690 142 710T166 744T201
767T246 776Q299 776 330 745T361 668Q361 620 330 589T247 558Q197 558 166 589T134 666ZM206 668Q206 648 218 636T248 624Q265 624 277 636T289 668Q289 686 278 698T248 710Q229 710 218 698T206 668Z" />
<glyph unicode="&#x1fc;" glyph-name="AEacute" horiz-adv-x="787" d="M661 853L583 721H430L502 853H661ZM426 0V148H247L172 0H-15L357 692H754V536H593V429H749V275H593V156H757V0H426ZM426 288V499L318 288H426Z" />
<glyph unicode="&#x1fd;" glyph-name="aeacute" horiz-adv-x="819" d="M556 -9Q440 -9 366 56Q357 45 345 34T314 13T273 -3T219 -9Q175 -9 138 3T74 40T32 98T17 174Q17 214 30 247T67 303T125 340T203 353Q234 353 255 348T287 335V356Q287 379 276 396T235
414Q206 414 196 399T186 368H37Q39 449 87 495T235 541Q291 541 327 526T385 486Q405 505 445 524T544 544Q605 544 653 525T736 471T788 386T806 277Q806 266 806 248T804 215H449Q452 183 479 158T557 133Q599 133 625 153T665 196L788 124Q777 101 758 77T711
34T644 3T556 -9ZM544 410Q502 410 480 385T453 328H639Q636 361 612 385T544 410ZM168 181Q168 155 185 138T229 121Q255 121 272 138T290 181Q290 208 272 224T228 240Q202 240 185 224T168 181ZM544 708L462 568H312L387 708H544Z" />
<glyph unicode="&#x1fe;" glyph-name="Oslashacute" horiz-adv-x="766" d="M523 853L445 721H292L364 853H523ZM20 345Q20 420 46 485T119 599T232 675T377 703Q431 703 480 691T564 657L612 711L718 618L672 566Q701 528 721 472T742 348Q742 273 717 208T645
94T531 18T382 -10Q322 -10 277 2T200 33L150 -24L44 68L92 122Q57 167 39 224T20 345ZM192 346Q192 321 196 298T209 255L458 537Q423 552 380 552Q335 552 300 536T241 492T205 427T192 346ZM570 346Q570 369 566 391T554 433L308 155Q342 141 381 141Q427 141
462 157T521 200T557 265T570 346Z" />
<glyph unicode="&#x1ff;" glyph-name="oslashacute" horiz-adv-x="595" d="M450 708L368 568H218L293 708H450ZM16 267Q16 325 36 376T94 464T183 522T296 544Q338 544 372 535T433 512L470 554L555 481L521 442Q549 407 564 364T579 269Q579 210 559 160T502
72T413 13T297 -9Q254 -9 218 0T159 24L119 -22L35 50L73 94Q46 128 31 172T16 267ZM425 267Q425 295 416 321L255 134Q274 128 298 128Q329 128 352 138T392 168T416 212T425 267ZM170 267Q170 237 177 215L337 400Q328 403 318 405T297 407Q235 407 203 367T170
267Z" />
<glyph unicode="&#x218;" glyph-name="Scommaaccent" horiz-adv-x="508" d="M194 510Q194 488 208 473T257 443L344 409Q412 381 449 334T487 209Q487 156 470 115T421 46T345 2T249 -13Q175 -13 129 8T59 64T27 138T21 217H179Q178 200 181 185T192 157T214 138T249
130Q278 130 296 145T315 191Q315 220 296 236T242 266Q216 277 190 287T134 312Q81 339 54 388T27 500Q27 545 43 583T88 648T158 690T250 705Q311 705 353 689T421 643T457 575T465 489H311Q312 521 296 541T251 562Q222 562 208 547T194 510ZM224 -190Q198 -183
181 -163T164 -110Q164 -78 187 -53T253 -27Q295 -27 317 -53T339 -112Q339 -135 333 -152T319 -183L283 -256H194L224 -190Z" />
<glyph unicode="&#x219;" glyph-name="scommaaccent" horiz-adv-x="434" d="M432 387Q432 359 475 350Q492 346 509 343T540 336Q575 326 600 313T642 280T667 233T675 170Q675 123 658 90T613 35T548 3T471 -7Q412 -7 373 8T310 49T278 108T271 176H424Q423 156
432 138T473 120Q493 120 506 128T519 153Q519 170 510 178T475 192Q449 197 432 201T394 213Q335 233 308 274T280 375Q280 414 295 445T336 497T397 530T474 542Q517 542 552 532T612 501T652 447T666 368H519Q518 392 507 406T471 420Q453 420 443 411T432 387ZM191
-190Q165 -183 148 -163T131 -110Q131 -78 154 -53T220 -27Q262 -27 284 -53T306 -112Q306 -135 300 -152T286 -183L250 -256H161L191 -190Z" />
<glyph unicode="&#x21a;" glyph-name="uni021A" horiz-adv-x="430" d="M299 536V0H132V536H16V692H414V536H299ZM186 -190Q160 -183 143 -163T126 -110Q126 -78 149 -53T215 -27Q257 -27 279 -53T301 -112Q301 -135 295 -152T281 -183L245 -256H156L186 -190Z" />
<glyph unicode="&#x21b;" glyph-name="uni021B" horiz-adv-x="315" d="M221 535H292V400H221V187Q221 160 232 150T265 139H292V4Q283 1 272 -1Q262 -3 247 -4T211 -6Q134 -6 97 32T60 139V400H13V535H60V620H221V535ZM398 -190Q372 -183 355 -163T338 -110Q338
-78 361 -53T427 -27Q469 -27 491 -53T513 -112Q513 -135 507 -152T493 -183L457 -256H368L398 -190Z" />
<glyph unicode="&#x237;" glyph-name="uni0237" horiz-adv-x="226" d="M194 8Q194 -33 185 -66T155 -124T100 -162T14 -176Q6 -176 -5 -176T-34 -175V-39H-8Q20 -38 26 -24T33 9V535H194V8Z" />
<glyph unicode="&#x2c6;" glyph-name="circumflex" horiz-adv-x="400" d="M280 710L373 567H235L200 617L165 567H27L120 710H280Z" />
<glyph unicode="&#x2c7;" glyph-name="caron" horiz-adv-x="400" d="M120 567L27 710H165L200 660L235 710H373L280 567H120Z" />
<glyph unicode="&#x2d8;" glyph-name="breve" horiz-adv-x="400" d="M201 560Q161 560 132 573T85 607T58 655T49 710H166Q166 689 175 677T202 665Q219 665 228 677T238 710H354Q354 682 346 655T318 607T270 573T201 560Z" />
<glyph unicode="&#x2d9;" glyph-name="dotaccent" horiz-adv-x="400" d="M201 560Q165 560 140 584T114 646Q114 682 138 706T200 731Q238 731 263 707T289 646Q289 609 264 585T201 560Z" />
<glyph unicode="&#x2da;" glyph-name="ring" horiz-adv-x="400" d="M86 666Q86 690 94 710T118 744T153 767T198 776Q251 776 282 745T313 668Q313 620 282 589T199 558Q149 558 118 589T86 666ZM158 668Q158 648 170 636T200 624Q217 624 229 636T241 668Q241
686 230 698T200 710Q181 710 170 698T158 668Z" />
<glyph unicode="&#x2db;" glyph-name="ogonek" horiz-adv-x="400" d="M270 0Q257 -5 249 -13T241 -34Q241 -49 252 -57T281 -65V-175Q231 -178 195 -172T136 -153T102 -120T91 -76Q91 -51 100 -33T121 0H270Z" />
<glyph unicode="&#x2dc;" glyph-name="tilde" horiz-adv-x="400" d="M259 566Q241 566 228 570T203 580T183 589T164 594Q141 594 141 564H29Q27 595 34 622T57 668T94 698T144 709Q164 709 177 705T201 695T219 686T238 681Q259 681 259 711H371Q375 644 345
605T259 566Z" />
<glyph unicode="&#x2dd;" glyph-name="hungarumlaut" horiz-adv-x="400" d="M212 708L148 568H3L60 708H212ZM398 708L329 568H186L248 708H398Z" />
</font>
</defs>
</svg>
